<?xml version="1.0" encoding="utf-8"?>
<!-- Generator: Adobe Illustrator 24.1.2, SVG Export Plug-In . SVG Version: 6.00 Build 0)  -->
<svg version="1.1" xmlns="http://www.w3.org/2000/svg" xmlns:xlink="http://www.w3.org/1999/xlink" x="0px" y="0px"
	 viewBox="0 0 500 500" style="enable-background:new 0 0 500 500;" xml:space="preserve">
<style type="text/css">
	.st0{display:none;}
	.st1{display:inline;fill:#230A7F;}
	.st2{opacity:0.28;}
	.st3{fill:#F5F5F5;}
	.st4{display:none;opacity:0.32;}
	.st5{display:inline;fill:#E6E6E6;}
	.st6{fill:#37474F;}
	.st7{fill:#455A64;}
	.st8{fill:#00FFFB;}
	.st9{opacity:0.6;enable-background:new    ;}
	.st10{opacity:0.5;enable-background:new    ;}
	.st11{opacity:0.4;enable-background:new    ;}
	.st12{opacity:0.15;enable-background:new    ;}
	.st13{fill:#263238;}
	.st14{fill:#E6E6E6;}
	.st15{fill:#E0E0E0;}
	.st16{fill:#EBEBEB;}
	.st17{fill:#FFFFFF;}
	.st18{opacity:0.5;fill:#FFFFFF;enable-background:new    ;}
	.st19{opacity:0.5;}
	.st20{opacity:0.9;fill:#263238;enable-background:new    ;}
	.st21{opacity:0.6;fill:#FFFFFF;enable-background:new    ;}
	.st22{opacity:0.6;}
	.st23{opacity:0.8;fill:#FFFFFF;enable-background:new    ;}
	.st24{opacity:0.8;}
	.st25{opacity:0.9;}
	.st26{opacity:0.6;fill:#00FFFB;enable-background:new    ;}
	.st27{opacity:0.7;}
	.st28{opacity:0.3;}
	.st29{opacity:0.25;}
	.st30{opacity:0.1;enable-background:new    ;}
	.st31{fill:#FFA8A7;}
	.st32{fill:#FAFAFA;}
	.st33{opacity:0.4;}
	.st34{fill:#F28F8F;}
	.st35{opacity:0.75;fill:#FFFFFF;enable-background:new    ;}
	.st36{opacity:0.1;fill:#00FFFB;enable-background:new    ;}
	.st37{opacity:0.3;enable-background:new    ;}
	.st38{opacity:0.2;enable-background:new    ;}
</style>
<g id="Layer_2" class="st0">
	<rect class="st1" width="500" height="500"/>
</g>
<g id="Layer_1">
	<g id="freepik--Floor--inject-14" class="st2">
		<ellipse id="freepik--floor--inject-14" class="st3" cx="249.9" cy="362.4" rx="224.2" ry="124.1"/>
	</g>
	<g id="freepik--Shadows--inject-14" class="st4">
		<path id="freepik--Shadow--inject-14" class="st5" d="M451.7,343.1l-125,72.2c-1.1,0.5-2.3,0.5-3.4,0l-180.2-104
			c-0.5-0.1-0.9-0.7-0.7-1.2c0.1-0.4,0.4-0.6,0.7-0.7l125-72.2c1.1-0.5,2.3-0.5,3.4,0l180.2,104c0.5,0.1,0.9,0.7,0.7,1.2
			C452.3,342.8,452,343.1,451.7,343.1z"/>
		<ellipse id="freepik--shadow--inject-14" class="st5" cx="161.2" cy="412.4" rx="75.1" ry="43.4"/>
		<ellipse id="freepik--shadow--inject-14_1_" class="st5" cx="252.6" cy="362.1" rx="59.1" ry="34.1"/>
		<ellipse id="freepik--shadow--inject-14_2_" class="st5" cx="384.1" cy="407.9" rx="37.1" ry="21.4"/>
	</g>
	<g id="freepik--Desk--inject-14">
		<g id="freepik--desk--inject-14">
			<g id="freepik--Table--inject-14">
				<path class="st6" d="M329.4,286.4v111c0,0.8-0.5,1.5-1.1,1.9l-2.4,1.4c-0.7,0.4-1.5,0.4-2.2,0l-2.4-1.4
					c-0.7-0.4-1.1-1.2-1.1-1.9v-111c0-0.7,0.5-1,1.1-0.6l2.4,1.4c0.7,0.4,1.5,0.4,2.2,0l2.4-1.4
					C328.9,285.4,329.4,285.6,329.4,286.4z"/>
				<path class="st7" d="M323.7,400.6l-2.4-1.4c-0.7-0.4-1.1-1.2-1.1-1.9v-111c0-0.7,0.5-1,1.1-0.6l2.4,1.4c0.7,0.4,1.1,1.1,1.1,1.9
					v111C324.8,400.7,324.3,401,323.7,400.6z"/>
				<path class="st6" d="M430.9,227.7v110.9c0,0.8-0.5,1.5-1.1,1.9l-2.4,1.4c-0.7,0.4-1.5,0.4-2.2,0l-2.4-1.4
					c-0.7-0.4-1.1-1.2-1.1-1.9v-111c0-0.7,0.5-1,1.1-0.6l2.4,1.4c0.7,0.4,1.5,0.4,2.2,0l2.4-1.4C430.4,226.7,430.9,227,430.9,227.7z
					"/>
				<path class="st7" d="M425.2,342l-2.4-1.4c-0.7-0.4-1.1-1.2-1.1-1.9v-111c0-0.7,0.5-1,1.1-0.6l2.4,1.4c0.7,0.4,1.1,1.2,1.1,1.9
					v110.9C426.3,342,425.8,342.3,425.2,342z"/>
				<path class="st6" d="M192.7,207.5v111c0,0.8-0.5,1.5-1.1,1.9l-2.4,1.4c-0.7,0.4-1.5,0.4-2.2,0l-2.4-1.4
					c-0.7-0.4-1.1-1.2-1.1-1.9v-111c0-0.7,0.5-1,1.1-0.6l2.4,1.4c0.7,0.4,1.5,0.4,2.2,0l2.4-1.4
					C192.2,206.5,192.7,206.8,192.7,207.5z"/>
				<path class="st7" d="M187,321.7l-2.4-1.4c-0.7-0.4-1.1-1.2-1.1-1.9v-111c0-0.7,0.5-1,1.1-0.6l2.4,1.4c0.7,0.4,1.1,1.2,1.1,1.9
					v110.9C188.1,321.8,187.6,322.1,187,321.7z"/>
				<path class="st8" d="M453,235.6v-0.8c-0.1-1.4-0.8-2.7-2-3.5L272,128c-1.3-0.7-2.8-0.7-4.1,0l-110.1,63.6
					c-1.2,0.8-1.9,2.1-2,3.5v0.9c0.1,1.4,0.8,2.7,2,3.5l179,103.3c1.3,0.6,2.8,0.6,4.1,0L451,239.1C452.2,238.3,452.9,237,453,235.6
					z"/>
				<path class="st9" d="M453,235.6v-0.8c-0.1-1.4-0.8-2.7-2-3.5L272,128c-1.3-0.7-2.8-0.7-4.1,0l-110.1,63.6
					c-1.2,0.8-1.9,2.1-2,3.5v0.9c0.1,1.4,0.8,2.7,2,3.5l179,103.3c1.3,0.6,2.8,0.6,4.1,0L451,239.1C452.2,238.3,452.9,237,453,235.6
					z"/>
				<path class="st8" d="M338.8,297.7v5.5c0.7,0,1.4-0.2,2-0.5L451,239.1c1.2-0.8,1.9-2.1,2-3.5v-0.8c-0.1-1.3-0.7-2.5-1.7-3.3
					c0.7,0.6,0.6,1.5-0.4,2.1l-110.1,63.6C340.2,297.6,339.5,297.7,338.8,297.7z"/>
				<path class="st10" d="M338.8,297.7v5.5c0.7,0,1.4-0.2,2-0.5L451,239.1c1.2-0.8,1.9-2.1,2-3.5v-0.8c-0.1-1.3-0.7-2.5-1.7-3.3
					c0.7,0.6,0.6,1.5-0.4,2.1l-110.1,63.6C340.2,297.6,339.5,297.7,338.8,297.7z"/>
				<path class="st8" d="M451,233.6l-110.1,63.6c-1.3,0.7-2.8,0.7-4.1,0L157.8,194c-0.6-0.2-1-0.9-0.8-1.6c0.1-0.4,0.4-0.7,0.8-0.8
					L267.9,128c1.3-0.7,2.8-0.7,4.1,0l179,103.3c0.6,0.2,1,0.9,0.8,1.6C451.7,233.2,451.4,233.5,451,233.6z"/>
				<path class="st11" d="M451,233.6l-110.1,63.6c-1.3,0.7-2.8,0.7-4.1,0L157.8,194c-0.6-0.2-1-0.9-0.8-1.6c0.1-0.4,0.4-0.7,0.8-0.8
					L267.9,128c1.3-0.7,2.8-0.7,4.1,0l179,103.3c0.6,0.2,1,0.9,0.8,1.6C451.7,233.2,451.4,233.5,451,233.6z"/>
			</g>
			<g id="freepik--Keyboard--inject-14">
				<path id="freepik--shadow--inject-14_3_" class="st12" d="M325.3,232.2l-26.1,15.1c-0.9,0.5-2,0.5-2.9,0l-77.1-44.4
					c-0.5-0.2-0.7-0.7-0.6-1.1c0.1-0.3,0.3-0.5,0.6-0.6l26.1-15.1c0.9-0.5,2-0.5,2.9,0l77.1,44.4c0.5,0.2,0.7,0.7,0.5,1.2
					C325.7,232,325.5,232.1,325.3,232.2z"/>
				<g id="freepik--keyboard--inject-14">
					<path class="st13" d="M220.8,198.5c0-0.4,0.3-0.7,0.6-0.8l24.5-14.1c0.9-0.5,2-0.5,2.9,0l74.8,43.3c0.3,0.1,0.6,0.5,0.6,0.9
						v2.6c0,0.4-0.3,0.7-0.6,0.8l-24.5,14.1c-0.9,0.5-2,0.5-2.9,0L221.4,202c-0.3-0.1-0.6-0.5-0.6-0.8V198.5z"/>
					<path class="st6" d="M299.1,242.6l24.5-14.1c0.5-0.2,0.7-0.7,0.6-1.1c-0.1-0.3-0.3-0.5-0.6-0.6l-74.8-43.3
						c-0.9-0.5-2-0.5-2.9,0l-24.5,14.1c-0.5,0.2-0.7,0.7-0.6,1.1c0.1,0.3,0.3,0.5,0.6,0.6l74.8,43.2
						C297.1,243,298.2,243,299.1,242.6z"/>
					<path class="st13" d="M297.7,242.9v2.6c0.5,0,0.9-0.1,1.4-0.3l24.5-14.1c0.3-0.1,0.6-0.5,0.6-0.9v-2.6c0,0.4-0.3,0.7-0.6,0.9
						l-24.5,14.1C298.7,242.8,298.2,242.9,297.7,242.9z"/>
					<path class="st8" d="M225.3,198.7L225.3,198.7l2.4-1.4l3.3,1.9l-2.4,1.4L225.3,198.7L225.3,198.7z M229.1,196.5L229.1,196.5
						l2.4-1.4l2.6,1.5l-2.4,1.4L229.1,196.5L229.1,196.5z M229.9,201.4L229.9,201.4l2.4-1.4l2.6,1.5l-2.4,1.4L229.9,201.4
						L229.9,201.4z M232.9,194.4L232.9,194.4l2.4-1.4l4.2,2.4l-2.4,1.4L232.9,194.4L232.9,194.4z M233,198.8L233,198.8l2.4-1.4
						l2.1,1.2l-2.4,1.4L233,198.8L233,198.8z M233.8,203.7L233.8,203.7l2.4-1.4l2.6,1.5l-2.4,1.4L233.8,203.7L233.8,203.7z
						 M236.4,200.8L236.4,200.8l2.4-1.4l2,1.2l-2.4,1.4L236.4,200.8L236.4,200.8z M236.7,192.2L236.7,192.2l2.4-1.4l3.3,1.9
						l-2.4,1.4L236.7,192.2L236.7,192.2z M237.7,205.9L237.7,205.9l2.4-1.4l18.7,10.8l-2.4,1.4L237.7,205.9L237.7,205.9z
						 M238.4,197.5L238.4,197.5l2.4-1.4l2,1.2l-2.4,1.4L238.4,197.5L238.4,197.5z M239.7,202.7L239.7,202.7l2.4-1.4l2.1,1.2
						l-2.4,1.4L239.7,202.7L239.7,202.7z M240.5,190L240.5,190l2.4-1.4l2.1,1.2l-2.4,1.4L240.5,190L240.5,190z M241.3,194.9
						L241.3,194.9l2.4-1.4l2.1,1.2l-2.4,1.4L241.3,194.9L241.3,194.9z M241.8,199.5L241.8,199.5l2.4-1.4l2.1,1.2l-2.4,1.4
						L241.8,199.5L241.8,199.5z M243.1,204.7L243.1,204.7l2.4-1.4l2,1.2l-2.4,1.4L243.1,204.7L243.1,204.7z M243.9,191.9
						L243.9,191.9l2.4-1.4l2.1,1.2l-2.4,1.4L243.9,191.9L243.9,191.9z M244.7,196.8L244.7,196.8l2.4-1.4l2.1,1.2l-2.4,1.4
						L244.7,196.8L244.7,196.8z M245.1,201.4L245.1,201.4l2.4-1.4l2,1.2l-2.4,1.4L245.1,201.4L245.1,201.4z M245.1,187.3
						L245.1,187.3l2.4-1.4l2.6,1.5l-2.4,1.4L245.1,187.3L245.1,187.3z M246.4,206.6L246.4,206.6l2.4-1.4l2.1,1.2l-2.4,1.4
						L246.4,206.6L246.4,206.6z M247.2,193.9L247.2,193.9l2.4-1.4l2.1,1.2l-2.4,1.3L247.2,193.9L247.2,193.9z M248,198.7L248,198.7
						l2.4-1.4l2.1,1.2l-2.4,1.4L248,198.7L248,198.7z M248.5,203.4L248.5,203.4l2.4-1.4l2.1,1.2l-2.4,1.4L248.5,203.4L248.5,203.4z
						 M249.8,208.5L249.8,208.5l2.4-1.4l2,1.2l-2.4,1.4L249.8,208.5L249.8,208.5z M250.5,190.4L250.5,190.4l2.4-1.4l2.1,1.2
						l-2.4,1.4L250.5,190.4L250.5,190.4z M250.6,195.8L250.6,195.8l2.4-1.4l2.1,1.2l-2.4,1.4L250.6,195.8L250.6,195.8z M251.4,200.7
						L251.4,200.7l2.4-1.4l2.1,1.2l-2.4,1.4L251.4,200.7L251.4,200.7z M251.8,205.3L251.8,205.3l2.4-1.4l2,1.2l-2.4,1.4L251.8,205.3
						L251.8,205.3z M253.2,210.5L253.2,210.5l2.4-1.5l2,1.2l-2.4,1.4L253.2,210.5L253.2,210.5z M253.8,192.4L253.8,192.4l2.4-1.4
						l2.1,1.2l-2.4,1.4L253.8,192.4L253.8,192.4z M253.9,197.8L253.9,197.8l2.4-1.4l2.1,1.2l-2.4,1.4L253.9,197.8L253.9,197.8z
						 M254.7,202.6L254.7,202.6l2.4-1.4l2.1,1.2l-2.4,1.4L254.7,202.6L254.7,202.6z M255.2,207.3L255.2,207.3l2.4-1.4l2,1.2
						l-2.4,1.4L255.2,207.3L255.2,207.3z M256.5,212.4L256.5,212.4l2.4-1.4l2,1.2l-2.4,1.4L256.5,212.4L256.5,212.4z M257.2,194.3
						L257.2,194.3l2.4-1.4l2,1.2l-2.4,1.4L257.2,194.3L257.2,194.3z M257.3,199.7L257.3,199.7l2.4-1.4l2,1.2l-2.5,1.4L257.3,199.7
						L257.3,199.7z M257.7,217.5L257.7,217.5l2.4-1.4l2.6,1.5l-2.4,1.4L257.7,217.5L257.7,217.5z M258.1,204.6L258.1,204.6l2.4-1.4
						l2.1,1.2l-2.4,1.4L258.1,204.6L258.1,204.6z M258.5,209.2L258.5,209.2l2.4-1.4l2,1.1l-2.4,1.4L258.5,209.2L258.5,209.2z
						 M259.9,214.4L259.9,214.4l2.4-1.4l2.1,1.2l-2.5,1.4L259.9,214.4L259.9,214.4z M260.5,196.3L260.5,196.3l2.4-1.4l2,1.1
						l-2.4,1.4L260.5,196.3L260.5,196.3z M260.7,201.6L260.7,201.6l2.4-1.4l2,1.2l-2.4,1.4L260.7,201.6L260.7,201.6z M261.5,206.5
						L261.5,206.5l2.4-1.4l2,1.2l-2.4,1.4L261.5,206.5L261.5,206.5z M261.6,219.7L261.6,219.7l2.4-1.4l2.6,1.5l-2.4,1.4L261.6,219.7
						L261.6,219.7z M261.9,211.1L261.9,211.1l2.4-1.4l2,1.2l-2.3,1.4L261.9,211.1L261.9,211.1z M263.2,216.3L263.2,216.3l2.4-1.4
						l2.1,1.2l-2.5,1.4L263.2,216.3L263.2,216.3z M264,203.6L264,203.6l2.4-1.4l2,1.2l-2.4,1.4L264,203.6L264,203.6z M264.8,208.4
						L264.8,208.4l2.4-1.4l2,1.2l-2.4,1.4L264.8,208.4L264.8,208.4z M265.3,213.1L265.3,213.1l2.4-1.4l2,1.2l-2.4,1.4L265.3,213.1
						L265.3,213.1z M265.4,199.1L265.4,199.1l2.4-1.4l2,1.2l-2.4,1.4L265.4,199.1L265.4,199.1z M265.4,222L265.4,222l2.4-1.4
						l2.6,1.5l-2.5,1.3L265.4,222L265.4,222z M266.6,218.3L266.6,218.3l2.4-1.4l2.1,1.2l-2.5,1.4L266.6,218.3L266.6,218.3z
						 M267.4,205.6L267.4,205.6l2.4-1.4l2.1,1.2l-2.4,1.4L267.4,205.6L267.4,205.6z M268.2,210.4L268.2,210.4l2.4-1.4l2,1.2
						l-2.4,1.4L268.2,210.4L268.2,210.4z M268.6,215L268.6,215l2.4-1.4l2.1,1.2l-2.5,1.4L268.6,215L268.6,215z M268.7,201L268.7,201
						l2.4-1.4l2,1.2l-2.4,1.4L268.7,201L268.7,201z M269.3,224.3L269.3,224.3l2.4-1.4l3.3,1.9l-2.4,1.4L269.3,224.3L269.3,224.3z
						 M270,220.3L270,220.3l2.4-1.4l6.5,3.7l-2.4,1.4l-6.4-3.9L270,220.3z M270.7,207.6L270.7,207.6l2.4-1.4l2,1.2l-2.4,1.4
						L270.7,207.6L270.7,207.6z M271.5,212.4L271.5,212.4l2.4-1.4l2,1l-2.4,1.4l-2-1.2L271.5,212.4z M272,217L272,217l2.4-1.4
						l2.1,1.2l-2.5,1.3l-2-1.2L272,217z M272.1,203L272.1,203l2.4-1.4l2,1.2l-2.4,1.4L272.1,203L272.1,203z M274.1,209.5
						L274.1,209.5l2.4-1.4l2,1.2l-2.4,1.4L274.1,209.5L274.1,209.5z M274.6,227.4L274.6,227.4l2.4-1.4l2.1,1.2l-2.5,1.4L274.6,227.4
						L274.6,227.4z M274.9,214.4L274.9,214.4l2.4-1.4l2,1.2l-2.3,1.2l-2-1.2L274.9,214.4z M275.3,219L275.3,219l2.4-1.4l1.9,1.1
						c0.2,0.1,0.4,0.1,0.6,0.1c0.2,0,0.4,0,0.6-0.1l3.2-1.8l2.4,1.4l-6.2,3.6L275.3,219L275.3,219z M275.4,205L275.4,205l2.4-1.4
						l2,1.2l-2.4,1.2l-2-1.2L275.4,205z M277.4,211.5L277.4,211.5l2.4-1.4l2.1,1.2l-2.4,1.4L277.4,211.5L277.4,211.5z M278,229.4
						L278,229.4l2.4-1.4l2.1,1.2l-2.5,1.4L278,229.4L278,229.4z M278.2,216.4L278.2,216.4l2.4-1.4l2,1.2l-2.4,1.4L278.2,216.4
						L278.2,216.4z M280.2,207.8L280.2,207.8l2.4-1.4l2.1,1.2l-2.5,1.4L280.2,207.8L280.2,207.8z M280.8,213.4L280.8,213.4l2.4-1.4
						l2.1,1.2l-2.4,1.4L280.8,213.4L280.8,213.4z M281.3,231.3L281.3,231.3l2.4-1.4l2,1.2l-2.5,1.4L281.3,231.3L281.3,231.3z
						 M281.8,227.2L281.8,227.2l2.4-1.4l2.1,1.2l-2.5,1.4l-2-1.4L281.8,227.2z M283.6,209.8L283.6,209.8l2.4-1.4l2,1.2l-2.4,1.4
						L283.6,209.8L283.6,209.8z M284.1,215.4L284.1,215.4l2.4-1.4l3.6,2.1l-2.4,1.4L284.1,215.4L284.1,215.4z M285.4,233.7
						L285.4,233.7l2.4-1.4l5.4,3.1l-2.5,1.4L285.4,233.7L285.4,233.7z M286,220.9L286,220.9l2.4-1.4l2,1.2l-2.4,1.4L286,220.9
						L286,220.9z M287,211.7L287,211.7l2.4-1.4l2,1.2l-2.4,1.2l-2-1.2L287,211.7z M289.2,231.5L289.2,231.5l2.4-1.4l2,1.2l-2.4,1.4
						L289.2,231.5L289.2,231.5z M289.4,222.8L289.4,222.8l2.4-1.4l2,1.2l-2.4,1.4L289.4,222.8L289.4,222.8z M289.8,218.7
						L289.8,218.7l2.4-1.4l2,1.2l-2.4,1.4L289.8,218.7L289.8,218.7z M290.3,213.7L290.3,213.7l2.4-1.4l2,1.2l-2.4,1.4L290.3,213.7
						L290.3,213.7z M292.1,237.6L292.1,237.6l2.4-1.4l2.1,1.2l-2.5,1.4L292.1,237.6L292.1,237.6z M292.6,233.4L292.6,233.4l2.4-1.4
						l2,1.2l-2.4,1.4L292.6,233.4L292.6,233.4z M292.7,224.8L292.7,224.8l2.4-1.4l2,1.2l-2.4,1.4L292.7,224.8L292.7,224.8z
						 M293,229.3L293,229.3l2.4-1.4l2,1.2l-2.4,1.4L293,229.3L293,229.3z M293.2,220.6L293.2,220.6l2.4-1.4l2,1.2l-2.4,1.4
						L293.2,220.6L293.2,220.6z M294.4,216L294.4,216l2.4-1.4l2.1,1.2l-2.4,1.2l-2-1.2L294.4,216z M295.5,239.5L295.5,239.5l6.2-3.6
						l2,1.2l-6.2,3.6L295.5,239.5L295.5,239.5z M295.9,235.4L295.9,235.4l2.4-1.4l2,1.2l-2.4,1.2l-2-1.2L295.9,235.4z M296.4,231.2
						L296.4,231.2l2.4-1.4l2,1.2l-2.4,1.4l-2-1.5L296.4,231.2z M296.5,222.6L296.5,222.6l2.4-1.4l2,1.2l-2.4,1.4L296.5,222.6
						L296.5,222.6z M296.8,227.1L296.8,227.1l2.4-1.4l2,1.2l-2.4,1.4L296.8,227.1L296.8,227.1z M297.8,218L297.8,218l2.4-1.4
						l2.1,1.2l-2.4,1.4L297.8,218L297.8,218z M299.7,233.2L299.7,233.2l2.4-1.4l2,1.2l-2.4,1.4l-2-1.4L299.7,233.2z M300.2,229
						L300.2,229l2.4-1.4l2,1.2l-2.4,1.2l-2-1.2L300.2,229z M300.6,224.9L300.6,224.9l2.4-1.4l2.1,1.2l-2.5,1.4L300.6,224.9
						L300.6,224.9z M301.2,219.9L301.2,219.9l2.4-1.4l2.1,1.2l-2.4,1.4L301.2,219.9L301.2,219.9z M303.1,235.1L303.1,235.1l6.2-3.6
						l2,1.2l-6.2,3.6L303.1,235.1L303.1,235.1z M303.5,231L303.5,231l2.4-1.4l2,1.2l-2.4,1.4L303.5,231L303.5,231z M304,226.9
						L304,226.9l2.4-1.4l2.1,1.2l-2.5,1.2l-2-1.2L304,226.9z M306.2,221.7L306.2,221.7l1-0.6l2.1,1.2l-1.1,0.6L306.2,221.7
						L306.2,221.7z M307.3,228.8L307.3,228.8l2.4-1.4l2.1,1.2l-2.5,1.4L307.3,228.8L307.3,228.8z M309.6,223.6L309.6,223.6l1-0.6
						l2.1,1.2l-1.1,0.6L309.6,223.6L309.6,223.6z M310.7,230.7L310.7,230.7l2.4-1.4l2.1,1.2l-2.5,1.4L310.7,230.7L310.7,230.7z
						 M312.9,225.6L312.9,225.6l1-0.6l2.1,1.2l-1.1,0.6L312.9,225.6L312.9,225.6z M316.3,227.5L316.3,227.5l1-0.6l2.1,1.2l-1.1,0.6
						L316.3,227.5L316.3,227.5z"/>
				</g>
			</g>
			<g id="freepik--Device--inject-14">
				<polygon id="freepik--shadow--inject-14_4_" class="st12" points="385.6,235.2 408.5,221.9 293.8,155.7 270.8,168.9 				"/>
				<g id="freepik--Monitor--inject-14">
					<path class="st14" d="M320.6,213.6l-16.4-9.5c-1.7-1-2.5-2.3-2.5-3.5v-2.3l15.4-8.8c1-0.6,1.6-1.7,1.6-2.8v-20.2l28.6,16.5
						v20.2c-0.1,1.1-0.7,2.2-1.6,2.8l-12.9,7.5C329,215.5,324.4,215.5,320.6,213.6z"/>
					<path class="st15" d="M340.5,206.9v2.3l5.2-3c1-0.6,1.6-1.7,1.6-2.8v-20.2l-5.5-3.1c-0.1,1.4-0.2,2.8-0.4,4.2l3.8,2.2v15.8
						c-0.1,1.2-0.7,2.2-1.6,2.8L340.5,206.9z"/>
					<path class="st3" d="M345.4,202.1c-0.1,1.1-0.7,2.2-1.6,2.8l-10.9,6.4c-3.8,1.9-8.4,1.9-12.2,0l-16.4-9.5
						c-3.4-1.9-3.4-5.1,0-7.1l10.9-6.4c1-0.6,1.6-1.7,1.6-2.8v-15.8l28.6,16.5L345.4,202.1z"/>
					<path class="st16" d="M311.8,190.3L311.8,190.3l3.3-1.9c1-0.6,1.6-1.7,1.6-2.8v-15.8l28.6,16.5v15.8c-0.1,1.1-0.7,2.2-1.6,2.8
						l-3.3,1.9L311.8,190.3z"/>
					<path class="st16" d="M301.7,198.3v2.3c0,1.3,0.9,2.6,2.5,3.5l16.4,9.5c1.8,1,3.8,1.5,5.8,1.4v-2.3c-2,0-4-0.5-5.8-1.4
						l-16.4-9.5C302.5,200.9,301.7,199.6,301.7,198.3z"/>
					<path class="st7" d="M391.3,223.9c-1.3,0.6-2.7,0.6-4-0.1L276.7,160c-1.2-0.8-1.9-2.1-2-3.5V59.5c-0.1-2.1,1.6-3.9,3.7-4
						c0.8,0,1.5,0.2,2.2,0.6l110.7,63.9c1.2,0.8,1.9,2.1,2,3.5v96.9C393.2,221.9,392.5,223.1,391.3,223.9z"/>
					<path class="st6" d="M387.4,223.9L276.7,160c-1.2-0.8-1.9-2.1-2-3.5V59.5c0-1.3,0.9-1.8,2-1.2l110.7,63.9
						c1.2,0.8,1.9,2.1,2,3.5v96.9C389.4,224,388.5,224.5,387.4,223.9z"/>
					<path class="st15" d="M387.7,224.3c1.9,1,4.2,0.2,5.1-1.6c0.3-0.6,0.5-1.2,0.4-1.9v-10.9l-3.8,2.2v10.9
						C389.4,224.1,388.7,224.6,387.7,224.3z"/>
					<path class="st17" d="M389.4,212v10.9c0,1.3-0.9,1.8-2,1.2l-110.7-63.9c-1.2-0.8-1.9-2.1-2-3.5v-10.9L389.4,212z"/>
					<path class="st8" d="M385.6,203.7v-76.7c0-0.9-0.5-1.6-1.2-2.1L279.7,64.5c-0.7-0.4-1.2-0.1-1.2,0.7v76.7
						c0,0.9,0.5,1.6,1.2,2.1l104.7,60.4C385,204.8,385.6,204.5,385.6,203.7z"/>
					<path class="st18" d="M385.6,203.7v-76.7c0-0.9-0.5-1.6-1.2-2.1L279.7,64.5c-0.7-0.4-1.2-0.1-1.2,0.7v76.7
						c0,0.9,0.5,1.6,1.2,2.1l104.7,60.4C385,204.8,385.6,204.5,385.6,203.7z"/>
					<path class="st7" d="M332,183.1c1.1,0.7,1.8,2,1.9,3.3c0,1.2-0.9,1.7-1.9,1.1c-1.1-0.7-1.8-2-1.9-3.3
						C330.1,183,331,182.5,332,183.1z"/>
					<path class="st13" d="M388.8,123.8c0.4,0.6,0.6,1.3,0.6,2V212l3.8-2.2v-86.2c0-0.7-0.2-1.4-0.6-2L388.8,123.8z"/>
				</g>
			</g>
			<g id="freepik--Window--inject-14">
				<g id="freepik--window--inject-14">
					<path class="st7" d="M292.8,39.5c0-0.1,0-0.1,0-0.2l0,0c0-0.1,0-0.1,0-0.2c0-0.1,0.1-0.2,0.1-0.3c0,0,0-0.1,0.1-0.1l0.1-0.1
						c0,0,0.1-0.1,0.1-0.1l0,0c0.1,0,0.1-0.1,0.2-0.1c0.4-0.2,0.9-0.1,1.3,0.2l129.2,74.5c1.1,0.8,1.9,2,2,3.4v93.5l0,0v0.4
						c0,0.5-0.3,0.9-0.7,1.2l-0.1,0.1l-0.1,0.1h-0.2c-0.1,0-0.2,0-0.3,0c-0.2,0-0.4-0.1-0.6-0.2h0l0,0l-1.7-1l-127.3-73.5
						c-1.2-0.8-1.9-2-2-3.4v-94C292.7,39.7,292.8,39.6,292.8,39.5z"/>
					<path class="st8" d="M293.4,38.5c0.4-0.2,0.9-0.1,1.3,0.2l129.2,74.5c1.1,0.8,1.9,2,2,3.4v6.4l2.5-1.5v-6.3
						c-0.1-1.4-0.8-2.6-2-3.4L297.2,37.2c-0.4-0.3-1-0.3-1.4-0.1C295.4,37.3,293.8,38.3,293.4,38.5z"/>
					<path class="st8" d="M292.7,39.8c0-1.2,0.9-1.7,2-1.1l129.2,74.6c1.2,0.7,1.9,2,2,3.4v6.4L292.7,46.2V39.8z"/>
					<g class="st19">
						<path class="st17" d="M294.7,38.7l129.2,74.5c0.6,0.4,1,0.9,1.4,1.4l2.5-1.4c-0.3-0.6-0.8-1.1-1.4-1.4L297.2,37.2
							c-0.4-0.3-1-0.3-1.4-0.1c-0.4,0.2-2,1.1-2.4,1.4C293.8,38.3,294.3,38.4,294.7,38.7z"/>
					</g>
					<path class="st12" d="M428.3,121.5v-6.3c0-0.7-0.2-1.4-0.6-2l-2.5,1.4c0.4,0.6,0.6,1.3,0.6,1.9v6.5L428.3,121.5z"/>
					<path class="st7" d="M421.4,114.5c0.7,0.6,1.1,1.4,1.1,2.3c0,0.9-0.5,1.4-1.1,1.1c-0.7-0.6-1.1-1.4-1.1-2.3
						C420.3,114.7,420.8,114.2,421.4,114.5z"/>
					<path class="st7" d="M417.5,112.3c0.7,0.6,1.1,1.4,1.1,2.3c0,0.9-0.5,1.4-1.1,1.1c-0.7-0.6-1.1-1.4-1.1-2.3
						C416.4,112.4,416.8,111.9,417.5,112.3z"/>
					<path class="st7" d="M413.5,110c0.7,0.6,1.1,1.4,1.1,2.3c0,0.9-0.5,1.4-1.1,1.1c-0.7-0.6-1.1-1.4-1.1-2.3
						C412.4,110.1,412.9,109.6,413.5,110z"/>
					<path class="st20" d="M425.1,211.7l0.1-0.1l2.1-1.2c0.5-0.3,0.9-0.9,1-1.5c0-0.1,0-0.2,0-0.3v-87.2l-2.5,1.5v87.6
						C425.8,211,425.6,211.4,425.1,211.7L425.1,211.7L425.1,211.7L425.1,211.7z"/>
				</g>
				<g id="freepik--Code--inject-14">
					<path class="st8" d="M332.3,79.4l27.2,15.7c0.4,0.2,0.7,0.7,0.7,1.2c0,0.4-0.3,0.6-0.7,0.3l-27.2-15.7
						c-0.4-0.3-0.7-0.7-0.7-1.2C331.6,79.4,331.9,79.2,332.3,79.4z"/>
					<path class="st14" d="M342.7,109.5l10.3,5.9c0.4,0.3,0.7,0.7,0.7,1.2c0,0.4-0.3,0.6-0.7,0.3l-10.3-5.9
						c-0.4-0.2-0.7-0.7-0.7-1.2C342,109.4,342.3,109.3,342.7,109.5z"/>
					<path class="st14" d="M342.7,115.5l10.3,5.9c0.4,0.3,0.7,0.7,0.7,1.2c0,0.4-0.3,0.6-0.7,0.3l-10.3-5.9
						c-0.4-0.2-0.7-0.7-0.7-1.2C342,115.4,342.3,115.3,342.7,115.5z"/>
					<path class="st8" d="M362.2,96.7l54.5,31.4c0.4,0.3,0.7,0.7,0.7,1.2c0,0.4-0.3,0.6-0.7,0.4l-54.5-31.4
						c-0.4-0.3-0.7-0.7-0.7-1.2C361.5,96.6,361.9,96.5,362.2,96.7z"/>
					<path class="st8" d="M342.9,151.6l16.6,9.6c0.4,0.2,0.7,0.7,0.7,1.1c0,0.4-0.3,0.6-0.7,0.4l-16.6-9.6c-0.4-0.3-0.7-0.7-0.7-1.1
						C342.3,151.6,342.6,151.4,342.9,151.6z"/>
					<path class="st8" d="M362.2,162.8l54.5,31.4c0.4,0.3,0.7,0.7,0.7,1.1c0,0.4-0.3,0.6-0.7,0.4l-54.5-31.4
						c-0.4-0.3-0.7-0.7-0.7-1.1C361.5,162.7,361.9,162.6,362.2,162.8z"/>
					<path class="st8" d="M332.3,85.5l13.7,7.9c0.4,0.3,0.7,0.7,0.7,1.2c0,0.4-0.3,0.6-0.7,0.3L332.3,87c-0.4-0.3-0.7-0.7-0.7-1.2
						C331.6,85.4,331.9,85.2,332.3,85.5z"/>
					<path class="st21" d="M332.3,85.5l13.7,7.9c0.4,0.3,0.7,0.7,0.7,1.2c0,0.4-0.3,0.6-0.7,0.3L332.3,87c-0.4-0.3-0.7-0.7-0.7-1.2
						C331.6,85.4,331.9,85.2,332.3,85.5z"/>
					<path class="st8" d="M332.3,91.5l6.4,3.7c0.4,0.3,0.7,0.7,0.7,1.2c0,0.4-0.3,0.6-0.7,0.3l-6.4-3.7c-0.4-0.3-0.7-0.7-0.7-1.2
						C331.6,91.4,331.9,91.2,332.3,91.5z"/>
					<path class="st21" d="M332.3,91.5l6.4,3.7c0.4,0.3,0.7,0.7,0.7,1.2c0,0.4-0.3,0.6-0.7,0.3l-6.4-3.7c-0.4-0.3-0.7-0.7-0.7-1.2
						C331.6,91.4,331.9,91.2,332.3,91.5z"/>
					<path class="st8" d="M332.3,103.5l6.4,3.7c0.4,0.3,0.7,0.7,0.7,1.2c0,0.4-0.3,0.6-0.7,0.3l-6.4-3.7c-0.4-0.3-0.7-0.7-0.7-1.2
						C331.6,103.4,331.9,103.3,332.3,103.5z"/>
					<path class="st21" d="M332.3,103.5l6.4,3.7c0.4,0.3,0.7,0.7,0.7,1.2c0,0.4-0.3,0.6-0.7,0.3l-6.4-3.7c-0.4-0.3-0.7-0.7-0.7-1.2
						C331.6,103.4,331.9,103.3,332.3,103.5z"/>
					<path class="st8" d="M332.3,109.5l6.4,3.7c0.4,0.3,0.7,0.7,0.7,1.2c0,0.4-0.3,0.6-0.7,0.3l-6.4-3.7c-0.4-0.3-0.7-0.7-0.7-1.2
						C331.6,109.4,331.9,109.3,332.3,109.5z"/>
					<path class="st21" d="M332.3,109.5l6.4,3.7c0.4,0.3,0.7,0.7,0.7,1.2c0,0.4-0.3,0.6-0.7,0.3l-6.4-3.7c-0.4-0.3-0.7-0.7-0.7-1.2
						C331.6,109.4,331.9,109.3,332.3,109.5z"/>
					<path class="st8" d="M348.7,94.9l8.2,4.8c0.4,0.2,0.7,0.7,0.7,1.2c0,0.4-0.3,0.6-0.7,0.3l-8.2-4.8c-0.4-0.3-0.7-0.7-0.7-1.2
						C348,94.8,348.3,94.7,348.7,94.9z"/>
					<path class="st21" d="M348.7,94.9l8.2,4.8c0.4,0.2,0.7,0.7,0.7,1.2c0,0.4-0.3,0.6-0.7,0.3l-8.2-4.8c-0.4-0.3-0.7-0.7-0.7-1.2
						C348,94.8,348.3,94.7,348.7,94.9z"/>
					<path class="st17" d="M361.4,138.3l55.3,31.9c0.4,0.3,0.7,0.7,0.7,1.1c0,0.4-0.3,0.6-0.7,0.4l-55.3-31.9
						c-0.4-0.2-0.7-0.7-0.7-1.1C360.7,138.3,361,138.1,361.4,138.3z"/>
					<path class="st17" d="M408.5,159.4l8.2,4.8c0.4,0.3,0.7,0.7,0.7,1.1c0,0.4-0.3,0.6-0.7,0.4l-8.2-4.8c-0.4-0.3-0.7-0.7-0.7-1.1
						C407.8,159.3,408.1,159.2,408.5,159.4z"/>
					<path class="st17" d="M350.5,126l55.3,31.9c0.4,0.3,0.7,0.7,0.7,1.2c0,0.4-0.3,0.6-0.7,0.4l-55.3-31.9
						c-0.4-0.3-0.7-0.7-0.7-1.2C349.8,125.9,350.1,125.8,350.5,126z"/>
					<path class="st8" d="M342.7,97.5l13.7,7.9c0.4,0.2,0.7,0.7,0.7,1.2c0,0.4-0.3,0.6-0.7,0.3L342.7,99c-0.4-0.2-0.7-0.7-0.7-1.2
						C342,97.4,342.3,97.2,342.7,97.5z"/>
					<path class="st21" d="M342.7,97.5l13.7,7.9c0.4,0.2,0.7,0.7,0.7,1.2c0,0.4-0.3,0.6-0.7,0.3L342.7,99c-0.4-0.2-0.7-0.7-0.7-1.2
						C342,97.4,342.3,97.2,342.7,97.5z"/>
					<path class="st8" d="M359.1,106.9l57.2,33.1c0.4,0.3,0.7,0.7,0.7,1.2c0,0.4-0.3,0.6-0.7,0.4l-57.2-33.1
						c-0.4-0.3-0.7-0.7-0.7-1.2C358.4,106.8,358.7,106.7,359.1,106.9z"/>
					<path class="st21" d="M359.1,106.9l57.2,33.1c0.4,0.3,0.7,0.7,0.7,1.2c0,0.4-0.3,0.6-0.7,0.4l-57.2-33.1
						c-0.4-0.3-0.7-0.7-0.7-1.2C358.4,106.8,358.7,106.7,359.1,106.9z"/>
					<path class="st14" d="M342.7,133.6l74,42.7c0.4,0.3,0.7,0.7,0.7,1.1c0,0.4-0.3,0.6-0.7,0.4l-74-42.7c-0.4-0.2-0.7-0.7-0.7-1.1
						C342,133.6,342.3,133.4,342.7,133.6z"/>
					<path class="st8" d="M332.3,127.6l6.4,3.7c0.4,0.3,0.7,0.7,0.7,1.1c0,0.4-0.3,0.6-0.7,0.4l-6.4-3.7c-0.4-0.3-0.7-0.7-0.7-1.2
						C331.6,127.6,331.9,127.4,332.3,127.6z"/>
					<path class="st21" d="M332.3,127.6l6.4,3.7c0.4,0.3,0.7,0.7,0.7,1.1c0,0.4-0.3,0.6-0.7,0.4l-6.4-3.7c-0.4-0.3-0.7-0.7-0.7-1.2
						C331.6,127.6,331.9,127.4,332.3,127.6z"/>
					<path class="st14" d="M342.7,139.6l74,42.7c0.4,0.3,0.7,0.7,0.7,1.1c0,0.4-0.3,0.6-0.7,0.4l-74-42.7c-0.4-0.2-0.7-0.7-0.7-1.1
						C342,139.6,342.3,139.4,342.7,139.6z"/>
					<path class="st8" d="M332.3,133.6l6.4,3.7c0.4,0.3,0.7,0.7,0.7,1.1c0,0.4-0.3,0.6-0.7,0.4l-6.4-3.7c-0.4-0.3-0.7-0.7-0.7-1.1
						C331.6,133.6,331.9,133.4,332.3,133.6z"/>
					<path class="st21" d="M332.3,133.6l6.4,3.7c0.4,0.3,0.7,0.7,0.7,1.1c0,0.4-0.3,0.6-0.7,0.4l-6.4-3.7c-0.4-0.3-0.7-0.7-0.7-1.1
						C331.6,133.6,331.9,133.4,332.3,133.6z"/>
					<path class="st14" d="M342.7,145.6l74,42.7c0.4,0.3,0.7,0.7,0.7,1.1c0,0.4-0.3,0.6-0.7,0.4l-74-42.7c-0.4-0.2-0.7-0.7-0.7-1.1
						C342,145.6,342.3,145.4,342.7,145.6z"/>
					<path class="st8" d="M332.3,139.6l6.4,3.7c0.4,0.3,0.7,0.7,0.7,1.1c0,0.4-0.3,0.6-0.7,0.4l-6.4-3.7c-0.4-0.3-0.7-0.7-0.7-1.1
						C331.6,139.6,331.9,139.4,332.3,139.6z"/>
					<path class="st21" d="M332.3,139.6l6.4,3.7c0.4,0.3,0.7,0.7,0.7,1.1c0,0.4-0.3,0.6-0.7,0.4l-6.4-3.7c-0.4-0.3-0.7-0.7-0.7-1.1
						C331.6,139.6,331.9,139.4,332.3,139.6z"/>
					<g class="st22">
						<path class="st17" d="M322.3,73.4l3.8,2.2c0.4,0.3,0.7,0.7,0.7,1.2v1.4c0,0.4-0.3,0.6-0.7,0.4l-3.8-2.2
							c-0.4-0.3-0.7-0.7-0.7-1.2v-1.4C321.6,73.4,321.9,73.2,322.3,73.4z"/>
						<path class="st17" d="M322.3,79.5l3.8,2.2c0.4,0.3,0.7,0.7,0.7,1.2v1.4c0,0.4-0.3,0.6-0.7,0.4l-3.8-2.2
							c-0.4-0.3-0.7-0.7-0.7-1.2v-1.4C321.6,79.4,321.9,79.3,322.3,79.5z"/>
						<path class="st17" d="M322.3,85.5l3.8,2.2c0.4,0.3,0.7,0.7,0.7,1.2v1.4c0,0.4-0.3,0.6-0.7,0.4l-3.8-2.2
							c-0.4-0.3-0.7-0.7-0.7-1.2v-1.4C321.6,85.5,321.9,85.3,322.3,85.5z"/>
						<path class="st17" d="M322.3,91.6l3.8,2.2c0.4,0.3,0.7,0.7,0.7,1.2v1.4c0,0.4-0.3,0.6-0.7,0.4l-3.8-2.2
							c-0.4-0.3-0.7-0.7-0.7-1.2V92C321.6,91.6,321.9,91.4,322.3,91.6z"/>
						<path class="st17" d="M322.3,97.7l3.8,2.2c0.4,0.3,0.7,0.7,0.7,1.2v1.4c0,0.4-0.3,0.6-0.7,0.4l-3.8-2.2
							c-0.4-0.3-0.7-0.7-0.7-1.2v-1.4C321.6,97.6,321.9,97.4,322.3,97.7z"/>
						<path class="st17" d="M322.3,103.7l3.8,2.2c0.4,0.3,0.7,0.7,0.7,1.2v1.4c0,0.4-0.3,0.6-0.7,0.4l-3.8-2.2
							c-0.4-0.3-0.7-0.7-0.7-1.2v-1.4C321.6,103.7,321.9,103.5,322.3,103.7z"/>
						<path class="st17" d="M322.3,109.8l3.8,2.2c0.4,0.3,0.7,0.7,0.7,1.2v1.4c0,0.4-0.3,0.6-0.7,0.4l-3.8-2.2
							c-0.4-0.3-0.7-0.7-0.7-1.2v-1.4C321.6,109.8,321.9,109.6,322.3,109.8z"/>
						<path class="st17" d="M322.3,115.9l3.8,2.2c0.4,0.3,0.7,0.7,0.7,1.2v1.4c0,0.4-0.3,0.6-0.7,0.4l-3.8-2.2
							c-0.4-0.3-0.7-0.7-0.7-1.2v-1.4C321.6,115.8,321.9,115.7,322.3,115.9z"/>
						<path class="st17" d="M322.3,121.9l3.8,2.2c0.4,0.3,0.7,0.7,0.7,1.2v1.4c0,0.4-0.3,0.6-0.7,0.4l-3.8-2.2
							c-0.4-0.3-0.7-0.7-0.7-1.2v-1.4C321.6,121.9,321.9,121.7,322.3,121.9z"/>
						<path class="st17" d="M322.3,128l3.8,2.2c0.4,0.3,0.7,0.7,0.7,1.2v1.4c0,0.4-0.3,0.6-0.7,0.4l-3.8-2.1
							c-0.4-0.3-0.7-0.7-0.7-1.2v-1.4C321.6,128,321.9,127.8,322.3,128z"/>
						<path class="st17" d="M322.3,134.1l3.8,2.2c0.4,0.3,0.7,0.7,0.7,1.2v1.4c0,0.4-0.3,0.6-0.7,0.4l-3.8-2.2
							c-0.4-0.3-0.7-0.7-0.7-1.2v-1.4C321.6,134,321.9,133.8,322.3,134.1z"/>
						<path class="st17" d="M322.3,140.1l3.8,2.2c0.4,0.3,0.7,0.7,0.7,1.2v1.4c0,0.4-0.3,0.6-0.7,0.4l-3.8-2.2
							c-0.4-0.3-0.7-0.7-0.7-1.2v-1.4C321.6,140.1,321.9,139.9,322.3,140.1z"/>
					</g>
					<path class="st6" d="M297.3,53.7l20.4,11.8c0.8,0.5,1.3,1.4,1.4,2.4v23.6c0,0.9-0.6,1.2-1.4,0.8l-20.4-11.8
						c-0.8-0.5-1.3-1.4-1.4-2.4V54.5C295.9,53.6,296.5,53.3,297.3,53.7z"/>
					<path class="st8" d="M299.2,77.1l1.9,1.1c0.4,0.3,0.7,0.7,0.7,1.2c0,0.4-0.3,0.6-0.7,0.3l-1.9-1.1c-0.4-0.3-0.7-0.7-0.7-1.2
						C298.5,77,298.8,76.8,299.2,77.1z"/>
					<path class="st21" d="M299.2,77.1l1.9,1.1c0.4,0.3,0.7,0.7,0.7,1.2c0,0.4-0.3,0.6-0.7,0.3l-1.9-1.1c-0.4-0.3-0.7-0.7-0.7-1.2
						C298.5,77,298.8,76.8,299.2,77.1z"/>
					<path class="st8" d="M299.2,57.8l1.9,1.1c0.4,0.3,0.7,0.7,0.7,1.2c0,0.4-0.3,0.6-0.7,0.3l-1.9-1.1c-0.4-0.3-0.7-0.7-0.7-1.2
						C298.5,57.7,298.8,57.5,299.2,57.8z"/>
					<path class="st21" d="M299.2,57.8l1.9,1.1c0.4,0.3,0.7,0.7,0.7,1.2c0,0.4-0.3,0.6-0.7,0.3l-1.9-1.1c-0.4-0.3-0.7-0.7-0.7-1.2
						C298.5,57.7,298.8,57.5,299.2,57.8z"/>
					<path class="st8" d="M301.8,63.2l1.9,1.1c0.4,0.3,0.7,0.7,0.7,1.2c0,0.4-0.3,0.6-0.7,0.3l-1.9-1.1c-0.4-0.3-0.7-0.7-0.7-1.2
						C301.1,63.1,301.4,62.9,301.8,63.2z"/>
					<path class="st21" d="M301.8,63.2l1.9,1.1c0.4,0.3,0.7,0.7,0.7,1.2c0,0.4-0.3,0.6-0.7,0.3l-1.9-1.1c-0.4-0.3-0.7-0.7-0.7-1.2
						C301.1,63.1,301.4,62.9,301.8,63.2z"/>
					<path class="st8" d="M301.8,67l1.9,1.1c0.4,0.3,0.7,0.7,0.7,1.2c0,0.4-0.3,0.6-0.7,0.3l-1.9-1.1c-0.4-0.3-0.7-0.7-0.7-1.2
						C301.1,66.9,301.4,66.8,301.8,67z"/>
					<path class="st21" d="M301.8,67l1.9,1.1c0.4,0.3,0.7,0.7,0.7,1.2c0,0.4-0.3,0.6-0.7,0.3l-1.9-1.1c-0.4-0.3-0.7-0.7-0.7-1.2
						C301.1,66.9,301.4,66.8,301.8,67z"/>
					<path class="st8" d="M299.2,69.3l1.9,1.1c0.4,0.3,0.7,0.7,0.7,1.2c0,0.4-0.3,0.6-0.7,0.3l-1.9-1.1c-0.4-0.3-0.7-0.7-0.7-1.2
						C298.5,69.3,298.8,69.1,299.2,69.3z"/>
					<path class="st21" d="M299.2,69.3l1.9,1.1c0.4,0.3,0.7,0.7,0.7,1.2c0,0.4-0.3,0.6-0.7,0.3l-1.9-1.1c-0.4-0.3-0.7-0.7-0.7-1.2
						C298.5,69.3,298.8,69.1,299.2,69.3z"/>
					<path class="st8" d="M301.8,74.7l1.9,1.1c0.4,0.3,0.7,0.7,0.7,1.2c0,0.4-0.3,0.6-0.7,0.3l-1.9-1.1c-0.4-0.3-0.7-0.7-0.7-1.2
						C301.1,74.7,301.4,74.5,301.8,74.7z"/>
					<path class="st21" d="M301.8,74.7l1.9,1.1c0.4,0.3,0.7,0.7,0.7,1.2c0,0.4-0.3,0.6-0.7,0.3l-1.9-1.1c-0.4-0.3-0.7-0.7-0.7-1.2
						C301.1,74.7,301.4,74.5,301.8,74.7z"/>
					<path class="st8" d="M304.3,60.7l11.5,6.6c0.4,0.2,0.7,0.7,0.7,1.2c0,0.4-0.3,0.6-0.7,0.3l-11.5-6.6c-0.4-0.3-0.7-0.7-0.7-1.2
						C303.6,60.7,303.9,60.5,304.3,60.7z"/>
					<path class="st23" d="M304.3,60.7l11.5,6.6c0.4,0.2,0.7,0.7,0.7,1.2c0,0.4-0.3,0.6-0.7,0.3l-11.5-6.6c-0.4-0.3-0.7-0.7-0.7-1.2
						C303.6,60.7,303.9,60.5,304.3,60.7z"/>
					<path class="st8" d="M304.3,80l11.5,6.6c0.4,0.2,0.7,0.7,0.7,1.2c0,0.4-0.3,0.6-0.7,0.3l-11.5-6.6c-0.4-0.3-0.7-0.7-0.7-1.2
						C303.6,80,303.9,79.8,304.3,80z"/>
					<path class="st23" d="M304.3,80l11.5,6.6c0.4,0.2,0.7,0.7,0.7,1.2c0,0.4-0.3,0.6-0.7,0.3l-11.5-6.6c-0.4-0.3-0.7-0.7-0.7-1.2
						C303.6,80,303.9,79.8,304.3,80z"/>
					<path class="st8" d="M307,66.1l8.8,5.1c0.4,0.3,0.7,0.7,0.7,1.2c0,0.4-0.3,0.6-0.7,0.3l-8.8-5.1c-0.4-0.2-0.7-0.7-0.7-1.2
						C306.3,66.1,306.6,65.9,307,66.1z"/>
					<path class="st23" d="M307,66.1l8.8,5.1c0.4,0.3,0.7,0.7,0.7,1.2c0,0.4-0.3,0.6-0.7,0.3l-8.8-5.1c-0.4-0.2-0.7-0.7-0.7-1.2
						C306.3,66.1,306.6,65.9,307,66.1z"/>
					<path class="st8" d="M307,70l8.8,5.1c0.4,0.2,0.7,0.7,0.7,1.2c0,0.4-0.3,0.6-0.7,0.3l-8.8-5.1c-0.4-0.2-0.7-0.7-0.7-1.2
						C306.3,69.9,306.6,69.8,307,70z"/>
					<path class="st23" d="M307,70l8.8,5.1c0.4,0.2,0.7,0.7,0.7,1.2c0,0.4-0.3,0.6-0.7,0.3l-8.8-5.1c-0.4-0.2-0.7-0.7-0.7-1.2
						C306.3,69.9,306.6,69.8,307,70z"/>
					<path class="st8" d="M304.3,72.3l11.5,6.6c0.4,0.2,0.7,0.7,0.7,1.2c0,0.4-0.3,0.6-0.7,0.3l-11.5-6.6c-0.4-0.2-0.7-0.7-0.7-1.2
						C303.6,72.3,303.9,72.1,304.3,72.3z"/>
					<path class="st23" d="M304.3,72.3l11.5,6.6c0.4,0.2,0.7,0.7,0.7,1.2c0,0.4-0.3,0.6-0.7,0.3l-11.5-6.6c-0.4-0.2-0.7-0.7-0.7-1.2
						C303.6,72.3,303.9,72.1,304.3,72.3z"/>
					<path class="st8" d="M307,77.7l8.8,5.1c0.4,0.2,0.7,0.7,0.7,1.2c0,0.4-0.3,0.6-0.7,0.3l-8.8-5.1c-0.4-0.2-0.7-0.7-0.7-1.2
						C306.3,77.6,306.6,77.5,307,77.7z"/>
					<path class="st23" d="M307,77.7l8.8,5.1c0.4,0.2,0.7,0.7,0.7,1.2c0,0.4-0.3,0.6-0.7,0.3l-8.8-5.1c-0.4-0.2-0.7-0.7-0.7-1.2
						C306.3,77.6,306.6,77.5,307,77.7z"/>
					<path class="st6" d="M297.3,84.9l20.4,11.8c0.8,0.5,1.3,1.4,1.4,2.4v46.5c0,0.9-0.6,1.2-1.4,0.8l-20.4-11.8
						c-0.8-0.5-1.3-1.4-1.4-2.4V85.7C295.9,84.8,296.5,84.4,297.3,84.9z"/>
					<path class="st8" d="M299.2,88.9L301,90c0.4,0.3,0.7,0.7,0.7,1.2c0,0.4-0.3,0.6-0.7,0.3l-1.9-1.1c-0.4-0.3-0.7-0.7-0.7-1.2
						C298.5,88.9,298.8,88.7,299.2,88.9z"/>
					<path class="st21" d="M299.2,88.9L301,90c0.4,0.3,0.7,0.7,0.7,1.2c0,0.4-0.3,0.6-0.7,0.3l-1.9-1.1c-0.4-0.3-0.7-0.7-0.7-1.2
						C298.5,88.9,298.8,88.7,299.2,88.9z"/>
					<path class="st8" d="M301.8,94.3l1.9,1.1c0.4,0.3,0.7,0.7,0.7,1.2c0,0.4-0.3,0.6-0.7,0.3l-1.9-1.1c-0.4-0.3-0.7-0.7-0.7-1.2
						C301.1,94.2,301.4,94.1,301.8,94.3z"/>
					<path class="st21" d="M301.8,94.3l1.9,1.1c0.4,0.3,0.7,0.7,0.7,1.2c0,0.4-0.3,0.6-0.7,0.3l-1.9-1.1c-0.4-0.3-0.7-0.7-0.7-1.2
						C301.1,94.2,301.4,94.1,301.8,94.3z"/>
					<path class="st8" d="M301.8,98.2l1.9,1.1c0.4,0.3,0.7,0.7,0.7,1.2c0,0.4-0.3,0.6-0.7,0.3l-1.9-1.1c-0.4-0.3-0.7-0.7-0.7-1.2
						C301.1,98.1,301.4,97.9,301.8,98.2z"/>
					<path class="st21" d="M301.8,98.2l1.9,1.1c0.4,0.3,0.7,0.7,0.7,1.2c0,0.4-0.3,0.6-0.7,0.3l-1.9-1.1c-0.4-0.3-0.7-0.7-0.7-1.2
						C301.1,98.1,301.4,97.9,301.8,98.2z"/>
					<path class="st8" d="M299.2,100.5l1.9,1.1c0.4,0.3,0.7,0.7,0.7,1.2c0,0.4-0.3,0.6-0.7,0.3l-1.9-1.1c-0.4-0.3-0.7-0.7-0.7-1.2
						C298.5,100.4,298.8,100.3,299.2,100.5z"/>
					<path class="st21" d="M299.2,100.5l1.9,1.1c0.4,0.3,0.7,0.7,0.7,1.2c0,0.4-0.3,0.6-0.7,0.3l-1.9-1.1c-0.4-0.3-0.7-0.7-0.7-1.2
						C298.5,100.4,298.8,100.3,299.2,100.5z"/>
					<path class="st8" d="M304.3,91.9l11.5,6.6c0.4,0.2,0.7,0.7,0.7,1.2c0,0.4-0.3,0.6-0.7,0.3l-11.5-6.6c-0.4-0.2-0.7-0.7-0.7-1.2
						C303.6,91.8,303.9,91.7,304.3,91.9z"/>
					<path class="st23" d="M304.3,91.9l11.5,6.6c0.4,0.2,0.7,0.7,0.7,1.2c0,0.4-0.3,0.6-0.7,0.3l-11.5-6.6c-0.4-0.2-0.7-0.7-0.7-1.2
						C303.6,91.8,303.9,91.7,304.3,91.9z"/>
					<path class="st8" d="M307,97.3l8.8,5.1c0.4,0.2,0.7,0.7,0.7,1.2c0,0.4-0.3,0.6-0.7,0.3l-8.8-5.1c-0.4-0.2-0.7-0.7-0.7-1.2
						C306.3,97.2,306.6,97.1,307,97.3z"/>
					<path class="st23" d="M307,97.3l8.8,5.1c0.4,0.2,0.7,0.7,0.7,1.2c0,0.4-0.3,0.6-0.7,0.3l-8.8-5.1c-0.4-0.2-0.7-0.7-0.7-1.2
						C306.3,97.2,306.6,97.1,307,97.3z"/>
					<path class="st8" d="M307,101.1l8.8,5.1c0.4,0.2,0.7,0.7,0.7,1.2c0,0.4-0.3,0.6-0.7,0.4l-8.8-5.1c-0.4-0.2-0.7-0.7-0.7-1.2
						C306.3,101.1,306.6,100.9,307,101.1z"/>
					<path class="st23" d="M307,101.1l8.8,5.1c0.4,0.2,0.7,0.7,0.7,1.2c0,0.4-0.3,0.6-0.7,0.4l-8.8-5.1c-0.4-0.2-0.7-0.7-0.7-1.2
						C306.3,101.1,306.6,100.9,307,101.1z"/>
					<path class="st8" d="M304.3,103.5l11.5,6.6c0.4,0.2,0.7,0.7,0.7,1.2c0,0.4-0.3,0.6-0.7,0.3l-11.5-6.6c-0.4-0.2-0.7-0.7-0.7-1.2
						C303.6,103.4,303.9,103.3,304.3,103.5z"/>
					<path class="st23" d="M304.3,103.5l11.5,6.6c0.4,0.2,0.7,0.7,0.7,1.2c0,0.4-0.3,0.6-0.7,0.3l-11.5-6.6
						c-0.4-0.2-0.7-0.7-0.7-1.2C303.6,103.4,303.9,103.3,304.3,103.5z"/>
					<path class="st8" d="M301.8,105.9l1.9,1.1c0.4,0.3,0.7,0.7,0.7,1.2c0,0.4-0.3,0.6-0.7,0.3l-1.9-1.1c-0.4-0.3-0.7-0.7-0.7-1.2
						C301.1,105.8,301.4,105.7,301.8,105.9z"/>
					<path class="st21" d="M301.8,105.9l1.9,1.1c0.4,0.3,0.7,0.7,0.7,1.2c0,0.4-0.3,0.6-0.7,0.3l-1.9-1.1c-0.4-0.3-0.7-0.7-0.7-1.2
						C301.1,105.8,301.4,105.7,301.8,105.9z"/>
					<path class="st8" d="M301.8,109.7l1.9,1.1c0.4,0.3,0.7,0.7,0.7,1.2c0,0.4-0.3,0.6-0.7,0.3l-1.9-1.1c-0.4-0.3-0.7-0.7-0.7-1.2
						C301.1,109.7,301.4,109.5,301.8,109.7z"/>
					<path class="st21" d="M301.8,109.7l1.9,1.1c0.4,0.3,0.7,0.7,0.7,1.2c0,0.4-0.3,0.6-0.7,0.3l-1.9-1.1c-0.4-0.3-0.7-0.7-0.7-1.2
						C301.1,109.7,301.4,109.5,301.8,109.7z"/>
					<path class="st8" d="M307,108.9l8.8,5.1c0.4,0.2,0.7,0.7,0.7,1.2c0,0.4-0.3,0.6-0.7,0.3l-8.8-5.1c-0.4-0.2-0.7-0.7-0.7-1.2
						C306.3,108.8,306.6,108.6,307,108.9z"/>
					<path class="st23" d="M307,108.9l8.8,5.1c0.4,0.2,0.7,0.7,0.7,1.2c0,0.4-0.3,0.6-0.7,0.3l-8.8-5.1c-0.4-0.2-0.7-0.7-0.7-1.2
						C306.3,108.8,306.6,108.6,307,108.9z"/>
					<path class="st8" d="M307,112.7l8.8,5.1c0.4,0.2,0.7,0.7,0.7,1.2c0,0.4-0.3,0.6-0.7,0.3l-8.8-5.1c-0.4-0.2-0.7-0.7-0.7-1.2
						C306.3,112.7,306.6,112.5,307,112.7z"/>
					<path class="st23" d="M307,112.7l8.8,5.1c0.4,0.2,0.7,0.7,0.7,1.2c0,0.4-0.3,0.6-0.7,0.3l-8.8-5.1c-0.4-0.2-0.7-0.7-0.7-1.2
						C306.3,112.7,306.6,112.5,307,112.7z"/>
					<path class="st8" d="M299.2,119.8l1.9,1.1c0.4,0.3,0.7,0.7,0.7,1.2c0,0.4-0.3,0.6-0.7,0.3l-1.9-1.1c-0.4-0.3-0.7-0.7-0.7-1.2
						C298.5,119.8,298.8,119.6,299.2,119.8z"/>
					<path class="st21" d="M299.2,119.8l1.9,1.1c0.4,0.3,0.7,0.7,0.7,1.2c0,0.4-0.3,0.6-0.7,0.3l-1.9-1.1c-0.4-0.3-0.7-0.7-0.7-1.2
						C298.5,119.8,298.8,119.6,299.2,119.8z"/>
					<path class="st8" d="M304.3,122.8l11.5,6.6c0.4,0.2,0.7,0.7,0.7,1.1c0,0.4-0.3,0.6-0.7,0.4l-11.5-6.6c-0.4-0.2-0.7-0.7-0.7-1.2
						C303.6,122.7,303.9,122.6,304.3,122.8z"/>
					<path class="st23" d="M304.3,122.8l11.5,6.6c0.4,0.2,0.7,0.7,0.7,1.1c0,0.4-0.3,0.6-0.7,0.4l-11.5-6.6
						c-0.4-0.2-0.7-0.7-0.7-1.2C303.6,122.7,303.9,122.6,304.3,122.8z"/>
					<path class="st8" d="M301.8,125.2l1.9,1.1c0.4,0.3,0.7,0.7,0.7,1.2c0,0.4-0.3,0.6-0.7,0.3l-1.9-1.1c-0.4-0.3-0.7-0.7-0.7-1.2
						C301.1,125.2,301.4,125,301.8,125.2z"/>
					<path class="st21" d="M301.8,125.2l1.9,1.1c0.4,0.3,0.7,0.7,0.7,1.2c0,0.4-0.3,0.6-0.7,0.3l-1.9-1.1c-0.4-0.3-0.7-0.7-0.7-1.2
						C301.1,125.2,301.4,125,301.8,125.2z"/>
					<path class="st8" d="M301.8,129.1l1.9,1.1c0.4,0.3,0.7,0.7,0.7,1.2c0,0.4-0.3,0.6-0.7,0.4l-1.9-1.1c-0.4-0.3-0.7-0.7-0.7-1.1
						C301.1,129,301.4,128.9,301.8,129.1z"/>
					<path class="st21" d="M301.8,129.1l1.9,1.1c0.4,0.3,0.7,0.7,0.7,1.2c0,0.4-0.3,0.6-0.7,0.4l-1.9-1.1c-0.4-0.3-0.7-0.7-0.7-1.1
						C301.1,129,301.4,128.9,301.8,129.1z"/>
					<path class="st8" d="M307,128.2l8.8,5.1c0.4,0.2,0.7,0.7,0.7,1.1c0,0.4-0.3,0.6-0.7,0.4l-8.8-5.1c-0.4-0.2-0.7-0.7-0.7-1.1
						C306.3,128.1,306.6,128,307,128.2z"/>
					<path class="st23" d="M307,128.2l8.8,5.1c0.4,0.2,0.7,0.7,0.7,1.1c0,0.4-0.3,0.6-0.7,0.4l-8.8-5.1c-0.4-0.2-0.7-0.7-0.7-1.1
						C306.3,128.1,306.6,128,307,128.2z"/>
					<path class="st8" d="M307,132.1l8.8,5.1c0.4,0.2,0.7,0.7,0.7,1.1c0,0.4-0.3,0.6-0.7,0.4l-8.8-5.1c-0.4-0.2-0.7-0.7-0.7-1.1
						C306.3,132,306.6,131.8,307,132.1z"/>
					<path class="st23" d="M307,132.1l8.8,5.1c0.4,0.2,0.7,0.7,0.7,1.1c0,0.4-0.3,0.6-0.7,0.4l-8.8-5.1c-0.4-0.2-0.7-0.7-0.7-1.1
						C306.3,132,306.6,131.8,307,132.1z"/>
					<path class="st8" d="M301.8,113.6l1.9,1.1c0.4,0.3,0.7,0.7,0.7,1.2c0,0.4-0.3,0.6-0.7,0.3l-1.9-1.1c-0.4-0.3-0.7-0.7-0.7-1.2
						C301.1,113.5,301.4,113.3,301.8,113.6z"/>
					<path class="st21" d="M301.8,113.6l1.9,1.1c0.4,0.3,0.7,0.7,0.7,1.2c0,0.4-0.3,0.6-0.7,0.3l-1.9-1.1c-0.4-0.3-0.7-0.7-0.7-1.2
						C301.1,113.5,301.4,113.3,301.8,113.6z"/>
					<path class="st8" d="M299.2,115.9l1.9,1.1c0.4,0.3,0.7,0.7,0.7,1.2c0,0.4-0.3,0.6-0.7,0.3l-1.9-1.1c-0.4-0.3-0.7-0.7-0.7-1.2
						C298.5,115.9,298.8,115.7,299.2,115.9z"/>
					<path class="st21" d="M299.2,115.9l1.9,1.1c0.4,0.3,0.7,0.7,0.7,1.2c0,0.4-0.3,0.6-0.7,0.3l-1.9-1.1c-0.4-0.3-0.7-0.7-0.7-1.2
						C298.5,115.9,298.8,115.7,299.2,115.9z"/>
					<path class="st8" d="M307,116.6l8.8,5.1c0.4,0.2,0.7,0.7,0.7,1.2c0,0.4-0.3,0.6-0.7,0.3l-8.8-5.1c-0.4-0.2-0.7-0.7-0.7-1.2
						C306.3,116.5,306.6,116.3,307,116.6z"/>
					<path class="st23" d="M307,116.6l8.8,5.1c0.4,0.2,0.7,0.7,0.7,1.2c0,0.4-0.3,0.6-0.7,0.3l-8.8-5.1c-0.4-0.2-0.7-0.7-0.7-1.2
						C306.3,116.5,306.6,116.3,307,116.6z"/>
					<path class="st8" d="M304.3,118.9l11.5,6.6c0.4,0.2,0.7,0.7,0.7,1.2c0,0.4-0.3,0.6-0.7,0.3l-11.5-6.6c-0.4-0.3-0.7-0.7-0.7-1.2
						C303.6,118.8,303.9,118.7,304.3,118.9z"/>
					<path class="st23" d="M304.3,118.9l11.5,6.6c0.4,0.2,0.7,0.7,0.7,1.2c0,0.4-0.3,0.6-0.7,0.3l-11.5-6.6
						c-0.4-0.3-0.7-0.7-0.7-1.2C303.6,118.8,303.9,118.7,304.3,118.9z"/>
					<path class="st8" d="M299.2,131.5l1.9,1.1c0.4,0.3,0.7,0.7,0.7,1.1c0,0.4-0.3,0.6-0.7,0.4l-1.9-1.1c-0.4-0.3-0.7-0.7-0.7-1.1
						C298.5,131.4,298.8,131.3,299.2,131.5z"/>
					<path class="st21" d="M299.2,131.5l1.9,1.1c0.4,0.3,0.7,0.7,0.7,1.1c0,0.4-0.3,0.6-0.7,0.4l-1.9-1.1c-0.4-0.3-0.7-0.7-0.7-1.1
						C298.5,131.4,298.8,131.3,299.2,131.5z"/>
					<path class="st8" d="M304.3,134.5l11.5,6.6c0.4,0.2,0.7,0.7,0.7,1.1c0,0.4-0.3,0.6-0.7,0.4l-11.5-6.6c-0.4-0.2-0.7-0.7-0.7-1.1
						C303.6,134.4,303.9,134.2,304.3,134.5z"/>
					<path class="st23" d="M304.3,134.5l11.5,6.6c0.4,0.2,0.7,0.7,0.7,1.1c0,0.4-0.3,0.6-0.7,0.4l-11.5-6.6
						c-0.4-0.2-0.7-0.7-0.7-1.1C303.6,134.4,303.9,134.2,304.3,134.5z"/>
				</g>
			</g>
			<g id="freepik--window--inject-14_1_">
				<g class="st24">
					<path class="st7" d="M410.8,150.3v76.4c0.1,1.1,0.7,2.1,1.6,2.8l43.9,25.3c0.2,0.1,0.3,0.1,0.5,0.1h0.2h0.1h0.1l0.1-0.1
						l0.1-0.1c0.1-0.1,0.2-0.3,0.3-0.4c0.1-0.3,0.2-0.5,0.2-0.8v-76c-0.1-1.1-0.7-2.1-1.6-2.8l-43.9-25.3c-0.3-0.2-0.7-0.3-1.1-0.1
						l-0.1,0.1l0,0l-0.1,0.1c0,0,0,0,0,0.1c0,0,0,0.1,0,0.1c0,0.1-0.1,0.1-0.1,0.2c0,0,0,0.1,0,0.1l0,0v0.1
						C410.8,150.2,410.8,150.2,410.8,150.3z"/>
				</g>
				<path class="st8" d="M411.3,149.2c0.4-0.1,0.8-0.1,1.1,0.1l43.9,25.3c0.9,0.6,1.5,1.6,1.6,2.8v5.2l2.5-1.5V176
					c-0.1-1.1-0.7-2.1-1.6-2.7L414.9,148c-0.3-0.2-0.8-0.3-1.1-0.1C413.5,148,411.6,149.1,411.3,149.2z"/>
				<path class="st8" d="M410.8,150.3c0-1,0.7-1.4,1.6-0.9l43.9,25.3c0.9,0.6,1.5,1.6,1.6,2.8v5.2l-47-27.1L410.8,150.3z"/>
				<g class="st19">
					<path class="st17" d="M412.4,149.4l43.9,25.3c0.5,0.3,0.9,0.7,1.1,1.2l2.5-1.4c-0.3-0.5-0.6-0.9-1.1-1.1L414.9,148
						c-0.3-0.2-0.8-0.3-1.1-0.1c-0.3,0.2-2.1,1.2-2.4,1.4C411.7,149.1,412.1,149.2,412.4,149.4z"/>
				</g>
				<path class="st12" d="M460.4,181.1V176c0-0.6-0.2-1.1-0.5-1.6l-2.5,1.4c0.3,0.5,0.5,1,0.5,1.6v5.2L460.4,181.1z"/>
				<path class="st7" d="M455.5,176.8c0.6,0.5,0.9,1.2,0.9,1.9c0,0.8-0.4,1.1-0.9,0.9c-0.6-0.5-0.9-1.2-0.9-1.9
					C454.6,176.9,455,176.5,455.5,176.8z"/>
				<path class="st7" d="M452.3,174.9c0.6,0.5,0.9,1.2,0.9,1.9c0,0.8-0.4,1.1-0.9,0.9c-0.6-0.5-0.9-1.2-0.9-1.9
					C451.4,175,451.8,174.6,452.3,174.9z"/>
				<path class="st7" d="M449.1,173.1c0.6,0.5,0.9,1.2,0.9,1.9c0,0.8-0.4,1.1-0.9,0.9c-0.6-0.5-0.9-1.2-0.9-1.9
					C448.2,173.2,448.6,172.8,449.1,173.1z"/>
				<g class="st25">
					<path class="st6" d="M457.3,254.7l0.2-0.1l0.5-0.3l0,0c0.1-0.1,0.2-0.1,0.3-0.1l0,0l0.4-0.2l0.9-0.5l0.2-0.1
						c0.1-0.1,0.2-0.1,0.3-0.2c0.1-0.1,0.2-0.2,0.2-0.3c0.1-0.3,0.2-0.5,0.2-0.8v-70.9l-2.5,1.5v70.8c0,0.3-0.1,0.5-0.2,0.8
						c-0.1,0.2-0.2,0.3-0.3,0.4C457.3,254.7,457.3,254.7,457.3,254.7L457.3,254.7z"/>
				</g>
				<path class="st8" d="M414.4,164.3c0-0.1,0-0.1,0.1-0.2l1.1-1c0,0,0,0,0,0l0,0c0,0,0.1,0.1,0.1,0.1c0,0.1,0,0.1,0,0.2v0.8
					c0,0.1,0,0.1,0,0.2c0,0,0,0.1-0.1,0.1l-0.6,0.6l0.6,1.3c0,0.1,0.1,0.1,0.1,0.2c0,0.1,0,0.2,0,0.2v0.8c0,0.1,0,0.1,0,0.1
					c0,0-0.1,0-0.1,0l0,0l0-0.1l-1.1-2.4c0-0.1-0.1-0.2-0.1-0.3V164.3z"/>
				<path class="st8" d="M418.6,163.1c0-0.1,0-0.1,0.1-0.1c0,0,0.1,0,0.2,0l0.4,0.3c0,0,0.1,0.1,0.1,0.1c0,0.1,0,0.1,0,0.2
					c0,0,0,0,0,0.1l-2,6.1c0,0.1,0,0.1-0.1,0.1c0,0-0.1,0-0.2,0l-0.4-0.2c0,0-0.1-0.1-0.1-0.1c0-0.1,0-0.1,0-0.2c0,0,0-0.1,0-0.1
					L418.6,163.1z"/>
				<path class="st8" d="M421.6,169c0,0.1,0,0.2-0.1,0.2l-1.1,1c0,0,0,0-0.1,0l0,0c0,0-0.1-0.1-0.1-0.1c0-0.1,0-0.1,0-0.2v-0.8
					c0-0.1,0-0.1,0-0.2c0,0,0-0.1,0.1-0.1l0.6-0.6l-0.6-1.2c0-0.1-0.1-0.1-0.1-0.2c0-0.1,0-0.2,0-0.2v-0.8c0,0,0-0.1,0-0.1
					c0,0,0,0,0.1,0l0,0c0,0,0,0,0.1,0.1l1.1,2.4c0,0.1,0.1,0.2,0.1,0.3V169z"/>
				<path class="st8" d="M424.8,172.1c0,0,0.1,0.1,0.1,0.1c0,0.1,0,0.1,0,0.2v0.9c0,0,0,0.1,0,0.1c0,0-0.1,0-0.1,0l-0.5-0.3
					c0,0-0.1-0.1-0.1-0.1c0-0.1,0-0.1,0-0.2V172c0,0,0-0.1,0-0.1c0,0,0.1,0,0.1,0L424.8,172.1z"/>
				<path class="st8" d="M426.6,173.1c0,0,0.1,0.1,0.1,0.1c0,0.1,0,0.1,0,0.2v0.9c0,0,0,0.1,0,0.1c0,0-0.1,0-0.1,0l-0.5-0.3
					c0,0-0.1-0.1-0.1-0.1c0-0.1,0-0.1,0-0.2V173c0-0.1,0-0.1,0-0.1c0,0,0.1,0,0.1,0L426.6,173.1z"/>
				<path class="st8" d="M428.4,174.2c0.1,0,0.1,0.1,0.1,0.1c0,0.1,0,0.1,0,0.2v0.9c0,0,0,0.1,0,0.1c0,0-0.1,0-0.1,0l-0.5-0.3
					c0,0-0.1-0.1-0.1-0.1c0-0.1,0-0.1,0-0.2V174c0-0.1,0-0.1,0-0.1c0,0,0.1,0,0.1,0L428.4,174.2z"/>
				<path class="st8" d="M414.9,171.2l26.4,15.2c0.3,0.2,0.5,0.6,0.6,0.9c0,0.3-0.3,0.5-0.6,0.3l-26.4-15.2
					c-0.3-0.2-0.5-0.5-0.6-0.9C414.4,171.1,414.6,171,414.9,171.2z"/>
				<path class="st14" d="M423.4,190.7l26.4,15.2c0.3,0.2,0.5,0.5,0.6,0.9c0,0.3-0.3,0.5-0.6,0.3l-26.4-15.2
					c-0.3-0.2-0.5-0.6-0.6-0.9C422.8,190.6,423.1,190.5,423.4,190.7z"/>
				<path class="st14" d="M423.4,200.5l12.6,7.3c0.3,0.2,0.5,0.6,0.6,0.9c0,0.3-0.3,0.5-0.6,0.3l-12.6-7.3c-0.3-0.2-0.5-0.5-0.6-0.9
					C422.8,200.4,423.1,200.3,423.4,200.5z"/>
				<path class="st8" d="M443.5,187.6l10.5,6c0.3,0.2,0.5,0.5,0.6,0.9c0,0.3-0.3,0.5-0.6,0.3l-10.5-6c-0.3-0.2-0.5-0.5-0.6-0.9
					C442.9,187.6,443.1,187.5,443.5,187.6z"/>
				<path class="st8" d="M414.9,224.9l26.4,15.2c0.3,0.2,0.5,0.5,0.6,0.9c0,0.3-0.3,0.5-0.6,0.3l-26.4-15.2
					c-0.3-0.2-0.5-0.6-0.6-0.9C414.4,224.8,414.6,224.7,414.9,224.9z"/>
				<path class="st8" d="M443.5,241.4l10.5,6c0.3,0.2,0.5,0.6,0.6,0.9c0,0.3-0.3,0.5-0.6,0.3l-10.5-6c-0.3-0.2-0.5-0.6-0.6-0.9
					C442.9,241.3,443.1,241.2,443.5,241.4z"/>
				<path class="st8" d="M443.5,226.7l10.5,6c0.3,0.2,0.5,0.5,0.6,0.9c0,0.3-0.3,0.5-0.6,0.3l-10.5-6c-0.3-0.2-0.5-0.6-0.6-0.9
					C442.9,226.7,443.1,226.6,443.5,226.7z"/>
				<path class="st8" d="M443.5,231.6l10.5,6c0.3,0.2,0.5,0.5,0.6,0.9c0,0.3-0.3,0.5-0.6,0.3l-10.5-6c-0.3-0.2-0.5-0.6-0.6-0.9
					C442.9,231.6,443.1,231.4,443.5,231.6z"/>
				<path class="st8" d="M434.5,221.6l5.9,3.4c0.3,0.2,0.5,0.5,0.6,0.9c0,0.3-0.3,0.5-0.6,0.3l-5.9-3.4c-0.3-0.2-0.5-0.6-0.6-0.9
					C433.9,221.5,434.2,221.4,434.5,221.6z"/>
				<path class="st8" d="M414.9,176.1l15.4,8.9c0.3,0.2,0.5,0.5,0.6,0.9c0,0.3-0.3,0.5-0.6,0.3l-15.4-8.9c-0.3-0.2-0.5-0.6-0.6-0.9
					C414.4,176,414.6,175.9,414.9,176.1z"/>
				<path class="st21" d="M414.9,176.1l15.4,8.9c0.3,0.2,0.5,0.5,0.6,0.9c0,0.3-0.3,0.5-0.6,0.3l-15.4-8.9c-0.3-0.2-0.5-0.6-0.6-0.9
					C414.4,176,414.6,175.9,414.9,176.1z"/>
				<path class="st8" d="M414.9,180.9l5.2,3c0.3,0.2,0.5,0.5,0.6,0.9c0,0.3-0.3,0.5-0.6,0.3l-5.2-3c-0.3-0.2-0.5-0.5-0.6-0.9
					C414.4,180.9,414.6,180.8,414.9,180.9z"/>
				<path class="st21" d="M414.9,180.9l5.2,3c0.3,0.2,0.5,0.5,0.6,0.9c0,0.3-0.3,0.5-0.6,0.3l-5.2-3c-0.3-0.2-0.5-0.5-0.6-0.9
					C414.4,180.9,414.6,180.8,414.9,180.9z"/>
				<path class="st8" d="M414.9,185.8l5.2,3c0.3,0.2,0.5,0.6,0.6,0.9c0,0.3-0.3,0.5-0.6,0.3l-5.2-3c-0.3-0.2-0.5-0.5-0.6-0.9
					C414.4,185.8,414.6,185.6,414.9,185.8z"/>
				<path class="st21" d="M414.9,185.8l5.2,3c0.3,0.2,0.5,0.6,0.6,0.9c0,0.3-0.3,0.5-0.6,0.3l-5.2-3c-0.3-0.2-0.5-0.5-0.6-0.9
					C414.4,185.8,414.6,185.6,414.9,185.8z"/>
				<path class="st8" d="M414.9,190.7l5.2,3c0.3,0.2,0.5,0.5,0.6,0.9c0,0.3-0.3,0.5-0.6,0.3l-5.2-3c-0.3-0.2-0.5-0.6-0.6-0.9
					C414.4,190.6,414.6,190.5,414.9,190.7z"/>
				<path class="st21" d="M414.9,190.7l5.2,3c0.3,0.2,0.5,0.6,0.6,0.9c0,0.3-0.3,0.5-0.6,0.3l-5.2-3c-0.3-0.2-0.5-0.6-0.6-0.9
					C414.4,190.6,414.6,190.5,414.9,190.7z"/>
				<path class="st26" d="M423.4,195.6l15.4,8.9c0.3,0.2,0.5,0.6,0.6,0.9c0,0.3-0.3,0.5-0.6,0.3l-15.4-8.9c-0.3-0.2-0.5-0.6-0.6-0.9
					C422.8,195.5,423.1,195.4,423.4,195.6z"/>
				<path class="st26" d="M440.9,205.7l6.7,3.9c0.3,0.2,0.5,0.5,0.6,0.9c0,0.3-0.3,0.5-0.6,0.3l-6.7-3.9c-0.3-0.2-0.5-0.5-0.6-0.9
					C440.4,205.7,440.6,205.5,440.9,205.7z"/>
				<path class="st21" d="M423.4,195.6l15.4,8.9c0.3,0.2,0.5,0.6,0.6,0.9c0,0.3-0.3,0.5-0.6,0.3l-15.4-8.9c-0.3-0.2-0.5-0.6-0.6-0.9
					C422.8,195.5,423.1,195.4,423.4,195.6z"/>
				<path class="st21" d="M440.9,205.7l6.7,3.9c0.3,0.2,0.5,0.5,0.6,0.9c0,0.3-0.3,0.5-0.6,0.3l-6.7-3.9c-0.3-0.2-0.5-0.5-0.6-0.9
					C440.4,205.7,440.6,205.5,440.9,205.7z"/>
				<path class="st8" d="M414.9,195.6l5.2,3c0.3,0.2,0.5,0.5,0.6,0.9c0,0.3-0.3,0.5-0.6,0.3l-5.2-3c-0.3-0.2-0.5-0.5-0.6-0.9
					C414.4,195.5,414.6,195.4,414.9,195.6z"/>
				<path class="st21" d="M414.9,195.6l5.2,3c0.3,0.2,0.5,0.5,0.6,0.9c0,0.3-0.3,0.5-0.6,0.3l-5.2-3c-0.3-0.2-0.5-0.5-0.6-0.9
					C414.4,195.5,414.6,195.4,414.9,195.6z"/>
				<path class="st8" d="M432.5,186.2l6.7,3.9c0.3,0.2,0.5,0.6,0.6,0.9c0,0.3-0.3,0.5-0.6,0.3l-6.7-3.9c-0.3-0.2-0.5-0.6-0.6-0.9
					C431.9,186.1,432.2,186,432.5,186.2z"/>
				<path class="st21" d="M432.5,186.2l6.7,3.9c0.3,0.2,0.5,0.6,0.6,0.9c0,0.3-0.3,0.5-0.6,0.3l-6.7-3.9c-0.3-0.2-0.5-0.6-0.6-0.9
					C431.9,186.1,432.2,186,432.5,186.2z"/>
				<path class="st17" d="M429.7,209l15.4,8.9c0.3,0.2,0.5,0.6,0.6,0.9c0,0.3-0.3,0.5-0.6,0.3l-15.4-8.9c-0.3-0.2-0.5-0.5-0.6-0.9
					C429.1,209,429.4,208.8,429.7,209z"/>
				<path class="st17" d="M438.6,219l15.4,8.9c0.3,0.2,0.5,0.6,0.6,0.9c0,0.3-0.3,0.5-0.6,0.3l-15.4-8.9c-0.3-0.2-0.5-0.6-0.6-0.9
					C438,219,438.3,218.9,438.6,219z"/>
				<path class="st17" d="M447.3,219.1l6.7,3.9c0.3,0.2,0.5,0.5,0.6,0.9c0,0.3-0.3,0.5-0.6,0.3l-6.7-3.9c-0.3-0.2-0.5-0.6-0.6-0.9
					C446.7,219.1,447,219,447.3,219.1z"/>
				<path class="st14" d="M447.3,238.5l6.7,3.9c0.3,0.2,0.5,0.6,0.6,0.9c0,0.3-0.3,0.5-0.6,0.3l-6.7-3.9c-0.3-0.2-0.5-0.6-0.6-0.9
					C446.7,238.4,447,238.3,447.3,238.5z"/>
				<path class="st8" d="M423.4,185.8l15.4,8.9c0.3,0.2,0.5,0.5,0.6,0.9c0,0.3-0.3,0.5-0.6,0.3l-15.4-8.9c-0.3-0.2-0.5-0.5-0.6-0.9
					C422.8,185.8,423.1,185.6,423.4,185.8z"/>
				<path class="st21" d="M423.4,185.8l15.4,8.9c0.3,0.2,0.5,0.5,0.6,0.9c0,0.3-0.3,0.5-0.6,0.3l-15.4-8.9c-0.3-0.2-0.5-0.5-0.6-0.9
					C422.8,185.8,423.1,185.6,423.4,185.8z"/>
				<path class="st8" d="M440.9,196l6.7,3.9c0.3,0.2,0.5,0.6,0.6,0.9c0,0.3-0.3,0.5-0.6,0.3l-6.7-3.9c-0.3-0.2-0.5-0.6-0.6-0.9
					C440.4,195.9,440.6,195.8,440.9,196z"/>
				<path class="st21" d="M440.9,196l6.7,3.9c0.3,0.2,0.5,0.6,0.6,0.9c0,0.3-0.3,0.5-0.6,0.3l-6.7-3.9c-0.3-0.2-0.5-0.6-0.6-0.9
					C440.4,195.9,440.6,195.8,440.9,196z"/>
			</g>
			<g id="freepik--Mouse--inject-14">
				<path class="st12" d="M336.1,251.9l9.4,5.4c3.3,1.7,7.3,1.5,10.4-0.5l15.5-11.4c2.8-2,2.6-5-0.4-6.8l-4.7-2.7
					c-3.4-1.7-7.4-1.9-10.9-0.3L336.3,246C333.2,247.6,333.1,250.2,336.1,251.9z"/>
				<path class="st6" d="M371.7,240.5l-10.7,8.4l-7.9,6.2c-0.8,0.4-1.7,0.6-2.5,0.6c-1.3,0.1-2.6-0.2-3.8-0.8l-8.4-4.9l0,0h0
					c-2.8-1.8-3.6-5.5-1.9-8.3c0.1-0.1,0.1-0.2,0.2-0.3l0.3-0.4c1.7-2.2,4.1-3.8,6.8-4.3l4.3-0.9c6.9-1.4,12.6-2.1,13.3-1.6
					L371.7,240.5L371.7,240.5z"/>
				<path class="st8" d="M365.7,245.2l0.6-0.5l-9.5-5.5l8.3-2.6l-0.8-0.5l-8.3,2.6l-5.7-3.3l-1.1,0.2L365.7,245.2z"/>
				<path class="st13" d="M354,254.6L354,254.6L354,254.6l7.6-5.5l10.2-7.4v-1.2c0,0,0-0.1,0-0.1h-0.1c-0.8-0.3-5.2,1.1-10.5,3.2
					l-3.5,1.4c-4.3,1.7-7.1,5.9-7.1,10.5v0.2c0.9,0,1.7-0.3,2.5-0.6L354,254.6z"/>
			</g>
		</g>
	</g>
	<g id="freepik--Plant--inject-14">
		<g id="freepik--Pot--inject-14">
			<path class="st8" d="M372.7,405.5c-10.4-10.7-16.5-54.3-6.4-62.8h51.5c10.1,8.5,4,52.1-6.3,62.8l-0.3,0.3
				c-0.1,0.1-0.2,0.2-0.4,0.4c-0.3,0.3-0.6,0.6-0.9,0.8l-0.3,0.2c-0.3,0.2-0.5,0.4-0.8,0.6c-0.4,0.3-0.9,0.6-1.3,0.9
				c-8.5,5-22.4,5-30.9,0l0,0c-0.5-0.3-0.9-0.6-1.4-0.9c-0.3-0.2-0.5-0.4-0.7-0.6l-0.3-0.2c-0.3-0.3-0.6-0.5-0.9-0.8
				c-0.1-0.1-0.3-0.3-0.4-0.4C372.9,405.7,372.8,405.6,372.7,405.5z"/>
			<g class="st19">
				<path class="st17" d="M372.7,405.5c-10.4-10.7-16.5-54.3-6.4-62.8h51.5c10.1,8.5,4,52.1-6.3,62.8l-0.3,0.3
					c-0.1,0.1-0.2,0.2-0.4,0.4c-0.3,0.3-0.6,0.6-0.9,0.8l-0.3,0.2c-0.3,0.2-0.5,0.4-0.8,0.6c-0.4,0.3-0.9,0.6-1.3,0.9
					c-8.5,5-22.4,5-30.9,0l0,0c-0.5-0.3-0.9-0.6-1.4-0.9c-0.3-0.2-0.5-0.4-0.7-0.6l-0.3-0.2c-0.3-0.3-0.6-0.5-0.9-0.8
					c-0.1-0.1-0.3-0.3-0.4-0.4C372.9,405.7,372.8,405.6,372.7,405.5z"/>
			</g>
			<path class="st8" d="M413.4,339.3c11.8,6.9,11.8,18,0,24.9s-30.8,6.9-42.6,0s-11.8-18,0-24.9S401.6,332.5,413.4,339.3z"/>
			<g class="st27">
				<path class="st17" d="M413.4,339.3c11.8,6.9,11.8,18,0,24.9s-30.8,6.9-42.6,0s-11.8-18,0-24.9S401.6,332.5,413.4,339.3z"/>
			</g>
			<path class="st8" d="M407.7,342.6c8.6,5,8.6,13.2,0,18.3s-22.6,5-31.3,0s-8.6-13.2,0-18.3S399.1,337.6,407.7,342.6z"/>
			<g class="st28">
				<path d="M407.7,342.6c8.6,5,8.6,13.2,0,18.3s-22.6,5-31.3,0s-8.6-13.2,0-18.3S399.1,337.6,407.7,342.6z"/>
			</g>
			<path class="st3" d="M376.5,351.3c8.6-5,22.6-5,31.3,0c2.1,1.1,3.9,2.8,5.2,4.8c-1.3,2-3.1,3.7-5.2,4.8c-8.6,5-22.6,5-31.3,0
				c-2.1-1.1-3.9-2.8-5.2-4.8C372.6,354.1,374.4,352.4,376.5,351.3z"/>
			<g id="freepik--Plants--inject-14">
				<path class="st8" d="M387.9,329.3c-0.6-1.2-1-2.5-1.3-3.8c-0.6-3.1,0.2-6.7,2.7-8.7c1-0.8,2.3-1.3,2.8-2.5
					c0.2-0.7,0.2-1.4,0-2.1c-0.5-2.7-1.4-5.4-0.6-8c0.8-2.4,2.6-4.4,5-5.4c2.3-1,4.8-1.6,7.3-1.9c1.3-0.1,2.6-0.5,3.9-1.1
					c1.4-0.8,1.9-2.2,2.8-3.5c1-1.4,2.2-2.6,3.5-3.8c2.6-2.3,5.9-4.3,9.5-4.1c7.6,0.3,7.4,6.9,5.2,11.8s-2.8,6.5,2,11.7
					s4.7,11.5-0.9,15s-9.3,4-7.1,10.9c2,6.1,3.2,11.3-2.4,17.9c-3.6,4.2-8.6,7.2-14.9,7c-2.5-0.2-5-0.8-7.3-1.7
					c-1.7-0.9-0.6-2.2-1.1-3.9l-3.7-10.9c-0.8-2.9-1.8-5.8-3-8.6C389.4,332.1,388.6,330.7,387.9,329.3z"/>
				<g class="st29">
					<path d="M387.9,329.3c-0.6-1.2-1-2.5-1.3-3.8c-0.6-3.1,0.2-6.7,2.7-8.7c1-0.8,2.3-1.3,2.8-2.5c0.2-0.7,0.2-1.4,0-2.1
						c-0.5-2.7-1.4-5.4-0.6-8c0.8-2.4,2.6-4.4,5-5.4c2.3-1,4.8-1.6,7.3-1.9c1.3-0.1,2.6-0.5,3.9-1.1c1.4-0.8,1.9-2.2,2.8-3.5
						c1-1.4,2.2-2.6,3.5-3.8c2.6-2.3,5.9-4.3,9.5-4.1c7.6,0.3,7.4,6.9,5.2,11.8s-2.8,6.5,2,11.7s4.7,11.5-0.9,15s-9.3,4-7.1,10.9
						c2,6.1,3.2,11.3-2.4,17.9c-3.6,4.2-8.6,7.2-14.9,7c-2.5-0.2-5-0.8-7.3-1.7c-1.7-0.9-0.6-2.2-1.1-3.9l-3.7-10.9
						c-0.8-2.9-1.8-5.8-3-8.6C389.4,332.1,388.6,330.7,387.9,329.3z"/>
				</g>
				<path class="st17" d="M398.2,357c0.2-0.1,0.4-0.3,0.4-0.5c-0.3-37.4,20.3-59.8,20.5-60c0.2-0.2,0.2-0.6,0-0.8
					c-0.2-0.2-0.6-0.2-0.8,0c-0.2,0.2-21.1,22.9-20.8,60.8c0,0.3,0.2,0.6,0.5,0.6c0,0,0,0,0,0L398.2,357z"/>
				<path class="st17" d="M404.2,322.2l0.1,0c6.7-4.2,18.7-7.4,18.8-7.4c0.3-0.1,0.5-0.4,0.4-0.7c-0.1-0.3-0.4-0.5-0.7-0.4
					c0,0,0,0,0,0c-0.5,0.1-12.3,3.2-19.1,7.5c-0.3,0.2-0.3,0.5-0.2,0.8c0,0,0,0,0,0C403.7,322.2,403.9,322.3,404.2,322.2z"/>
				<path class="st17" d="M406.3,317L406.3,317c0.3-0.1,0.4-0.5,0.3-0.7c-1.6-3.7-3.7-7.2-6.2-10.4c-0.2-0.2-0.5-0.3-0.8-0.1
					c0,0,0,0,0,0c-0.2,0.2-0.3,0.6-0.1,0.8c2.5,3.1,4.5,6.5,6,10.1C405.6,317,406,317.1,406.3,317C406.2,317,406.3,317,406.3,317z"
					/>
				<path class="st8" d="M392.9,361c-5.3,1.7-11,1.9-16.4,0.6c-9.4-2-15.2-10.8-15.2-10.8s10.2-4.1,16.1-4.5
					c-5.9-0.9-12-0.8-17.9,0.4c0,0-5.5-2-4.4-11.2c0,0,5.1-3.8,17-2.3c0,0-5.9-4.2-16.3-5.5c-0.8,0,0.3-12,1.3-17.4s3-4.5,7.2-4.1
					s16.8,3.3,18.4,6.4s0,10.9,0,10.9c2.2-3,3.4-6.6,3.5-10.3c0,0,4.7,1.7,7.3,4c1.9,1.5,3.4,3.5,4.5,5.7
					c-0.6,4.2-2.6,10.6-5.4,14.2c0,0,6.3-4,7.7-11.5c3.1,4.3,4.9,9.4,5,14.6C405.2,349.8,401,356.7,392.9,361z"/>
				<path class="st30" d="M392.9,361c-5.3,1.7-11,1.9-16.4,0.6c-9.4-2-15.2-10.8-15.2-10.8s10.2-4.1,16.1-4.5
					c-5.9-0.9-12-0.8-17.9,0.4c0,0-5.5-2-4.4-11.2c0,0,5.1-3.8,17-2.3c0,0-5.9-4.2-16.3-5.5c-0.8,0,0.3-12,1.3-17.4s3-4.5,7.2-4.1
					s16.8,3.3,18.4,6.4s0,10.9,0,10.9c2.2-3,3.4-6.6,3.5-10.3c0,0,4.7,1.7,7.3,4c1.9,1.5,3.4,3.5,4.5,5.7
					c-0.6,4.2-2.6,10.6-5.4,14.2c0,0,6.3-4,7.7-11.5c3.1,4.3,4.9,9.4,5,14.6C405.2,349.8,401,356.7,392.9,361z"/>
				<path class="st17" d="M394.2,360.2c-0.2-0.1-0.3-0.3-0.3-0.5c-1.4-17.9-21.4-45.8-30.2-51.4c-0.2-0.2-0.3-0.5-0.2-0.8
					c0.2-0.2,0.5-0.3,0.7-0.2c9,5.7,29.3,34,30.7,52.2c0,0.3-0.2,0.6-0.5,0.6c0,0,0,0,0,0C394.3,360.2,394.2,360.2,394.2,360.2z"/>
			</g>
		</g>
	</g>
	<g id="freepik--Character--inject-14">
		<g id="freepik--character--inject-14">
			<path class="st31" d="M213.5,349c0-0.2-3.2-11.8-3.2-11.8s1.1,1.1,7.8-0.7c2.5-0.8,5-1.8,7.3-3.1l1.9,8.5c1.8,3.3,7.7,1.8,14.2,1
				c1.1-0.1,2.2-0.3,3.3-0.5h0.1c3.5-0.2,7,1.9,3.4,4.9s-9.6,4.1-15.2,5.1C226.4,353.7,214.7,355.6,213.5,349z"/>
			<path class="st13" d="M260,348c0.5,1.1,0.6,2.4,0.5,3.6c-0.1,1.3-3.3,5.7-9,8.4s-12.6,2.9-15.9,3.8s-6.3,2.8-10.1,3.8
				s-7.7,1.4-11.5-1.1c-0.7-1.1-1.5-3.6-1.3-3.9C213.4,361.8,260,348,260,348z"/>
			<path class="st8" d="M228.3,343.1c2.5,1.7,7.6,0.5,13.2-0.1c5.2-0.6,11.1-2.4,14.7-1.2c3.6,1.2,6.5,5.4,1.7,10.8
				c-1.4,1.5-4.3,4.3-6.7,5.1c-6,2.1-11.3,2.3-15.2,3.3c-5,1.2-7.7,3.5-12.4,4c-6,0.7-9.8-0.8-10.8-2.4s-2-14.5,0.6-14.2
				c0,0,1.1,4.2,10.9,0.1C228.5,346.6,228.4,344,228.3,343.1z"/>
			<path class="st11" d="M228.3,343.1c2.5,1.7,7.6,0.5,13.2-0.1c5.2-0.6,11.1-2.4,14.7-1.2c3.6,1.2,6.5,5.4,1.7,10.8
				c-1.4,1.5-4.3,4.3-6.7,5.1c-6,2.1-11.3,2.3-15.2,3.3c-5,1.2-7.7,3.5-12.4,4c-6,0.7-9.8-0.8-10.8-2.4s-2-14.5,0.6-14.2
				c0,0,1.1,4.2,10.9,0.1C228.5,346.6,228.4,344,228.3,343.1z"/>
			<path class="st32" d="M244.9,350c0,0-0.6-5.4-4.6-6.9c-0.7-0.3-1.6-0.2-2.2,0.3c0,0,3.7,0.5,5,6.9c0,0,0.2,0.4,1,0.3
				C244.3,350.5,244.9,350.4,244.9,350z"/>
			<path class="st32" d="M234.6,343.8c0,0,0-0.2,0.9-0.4c0.4-0.1,0.8,0,1.1,0.1c0,0,3,1.3,3.6,7c0,0,0,0.7-0.9,0.9
				c-0.4,0.2-0.9-0.1-1-0.5c0,0,0,0,0-0.1C238.2,350.9,237.6,344.9,234.6,343.8z"/>
			<path class="st32" d="M231.4,343.9c0,0,0.2-0.3,0.9-0.3c0.9,0,1.1,0.4,1.1,0.4s2.1,2.2,2.2,7c0,0,0.1,0.8-1,0.9s-1-0.8-1-0.8
				S233.1,344.9,231.4,343.9z"/>
			<path class="st6" d="M209.4,270.2c4.9,14.7,17.9,65.5,17.9,65.5s-8.5,7.6-17.6,4.1l-21.9-63.2L209.4,270.2z"/>
			<path class="st31" d="M247.1,365.4c-1-1.5-4.8-11.8-4.8-11.8s3.9,2.2,10.7,0.6c3.4-0.8,6.6-4.5,6.6-4.5l2.9,9.9
				c1.7,3.3,7.2,2.2,13.7,1.6c1.1-0.1,2.2-0.3,3.3-0.4h0.1c3.5-0.1,7,2.1,3.3,5s-9.7,3.9-15.3,4.7C261,371.6,250.9,371,247.1,365.4z
				"/>
			<path class="st13" d="M297.6,365.1c0.5,1.2,0.6,2.5,0.4,3.8c-0.2,1.4-3.7,6-9.8,8.7s-13.6,2.7-17.2,3.7s-6.8,2.9-11,3.8
				s-8.3,1.3-12.3-1.5c-0.7-1.2-1.5-3.9-1.3-4.2C247.1,378.7,297.6,365.1,297.6,365.1z"/>
			<path class="st8" d="M263.6,358.9c0.4,0.3,0.8,0.5,1.2,0.8c0.4,0.2,0.9,0.3,1.4,0.3c1.1,0.1,2.2,0.1,3.3,0.1
				c2.7-0.1,5.5-0.5,8.2-0.8c5.6-0.5,12-2.3,15.8-0.9s7.3,6,1.9,11.6c-2,2.2-4.4,4-7.1,5.4c-6.3,2.6-12.8,2.1-17,3.1
				c-5.4,1.2-8.4,3.5-13.4,4c-6.4,0.6-10.5-1.2-11.5-2.9c-0.6-1,0.1-6-0.7-10c-0.7-3.4-0.5-5.7,0.7-5.5c0.3,0.4,0.6,0.8,0.9,1.2
				c0.4,0.5,0.9,0.9,1.4,1.1c0.8,0.4,1.6,0.6,2.4,0.8c1.5,0.4,3,0.7,4.5,0.6c0.4,0,0.9-0.1,1.2-0.4c0.4-0.4,0.7-0.9,0.7-1.5
				c0.1-0.5,0.2-1,0.3-1.5c0-0.3,0.1-0.5,0.3-0.8c0.2-0.3,0.5-0.5,0.8-0.6c1-0.4,1.8-1.1,2.5-1.9c0.4-0.7,0.6-1.5,0.7-2.3
				c0-0.1,0.1-0.3,0.2-0.4c0.2-0.1,0.5,0,0.6,0.1L263.6,358.9z"/>
			<path class="st11" d="M263.6,358.9c0.4,0.3,0.8,0.5,1.2,0.8c0.4,0.2,0.9,0.3,1.4,0.3c1.1,0.1,2.2,0.1,3.3,0.1
				c2.7-0.1,5.5-0.5,8.2-0.8c5.6-0.5,12-2.3,15.8-0.9s7.3,6,1.9,11.6c-2,2.2-4.4,4-7.1,5.4c-6.3,2.6-12.8,2.1-17,3.1
				c-5.4,1.2-8.4,3.5-13.4,4c-6.4,0.6-10.5-1.2-11.5-2.9c-0.6-1,0.1-6-0.7-10c-0.7-3.4-0.5-5.7,0.7-5.5c0.3,0.4,0.6,0.8,0.9,1.2
				c0.4,0.5,0.9,0.9,1.4,1.1c0.8,0.4,1.6,0.6,2.4,0.8c1.5,0.4,3,0.7,4.5,0.6c0.4,0,0.9-0.1,1.2-0.4c0.4-0.4,0.7-0.9,0.7-1.5
				c0.1-0.5,0.2-1,0.3-1.5c0-0.3,0.1-0.5,0.3-0.8c0.2-0.3,0.5-0.5,0.8-0.6c1-0.4,1.8-1.1,2.5-1.9c0.4-0.7,0.6-1.5,0.7-2.3
				c0-0.1,0.1-0.3,0.2-0.4c0.2-0.1,0.5,0,0.6,0.1L263.6,358.9z"/>
			<path class="st32" d="M281.2,366.8c0,0-0.5-5.9-4.7-7.5c-0.8-0.4-1.7-0.3-2.4,0.3c0,0,4,0.7,5.1,7.6c0,0,0.2,0.5,1.1,0.3
				C280.6,367.4,281.2,367.3,281.2,366.8z"/>
			<path class="st32" d="M270.4,359.9c0,0,0-0.2,1-0.4c0.4-0.1,0.8,0,1.2,0.2c0,0,3.2,1.5,3.6,7.6c0,0,0,0.7-1,0.9
				c-0.5,0.2-1-0.1-1.1-0.6c0,0,0,0,0-0.1C274.1,367.6,273.6,361.2,270.4,359.9z"/>
			<path class="st32" d="M266.9,360c0,0,0.2-0.4,1-0.3c1,0,1.2,0.4,1.2,0.4s2.2,2.4,2.1,7.5c0,0,0.1,0.9-1.1,0.9s-1-0.9-1-0.9
				S268.8,361,266.9,360z"/>
			<path class="st7" d="M243.8,287.6c3.9,11.9,13.7,45.7,18.2,63c0,0-8.1,7.3-18.5,6.6l-25.1-65.1l10-6.2L243.8,287.6z"/>
			<path class="st7" d="M161.2,450c0.9,0,1.6-0.7,1.6-1.6l0,0V343.8c0-0.9-0.7-1.6-1.6-1.6c-0.9,0-1.6,0.7-1.6,1.6v104.6
				C159.6,449.3,160.3,450,161.2,450z"/>
			<path class="st7" d="M96.5,412c0.7,0,1.3-0.4,1.5-1l32.1-81.2c0.4-0.8,0.1-1.8-0.7-2.2s-1.8-0.1-2.2,0.7c0,0.1-0.1,0.2-0.1,0.3
				L95,409.7c-0.3,0.8,0.1,1.8,0.9,2.1C96.1,411.9,96.3,412,96.5,412z"/>
			<path class="st7" d="M100.4,402.2c0.4,0,0.9-0.2,1.2-0.5l59.7-63.1l59.6,62.9c0.7,0.6,1.7,0.6,2.3-0.1c0.6-0.6,0.6-1.5,0.1-2.2
				l-60.8-64.1c-0.3-0.3-0.7-0.5-1.2-0.5l0,0c-0.4,0-0.9,0.2-1.2,0.5l-60.9,64.4c-0.6,0.7-0.6,1.7,0.1,2.3
				C99.6,402,100,402.2,100.4,402.2L100.4,402.2z"/>
			<path class="st7" d="M225.9,412c0.2,0,0.4,0,0.6-0.1c0.8-0.3,1.2-1.3,0.9-2.1l-32.1-81.2c-0.2-0.9-1.1-1.4-2-1.2
				c-0.9,0.2-1.4,1.1-1.2,2c0,0.1,0.1,0.3,0.2,0.4l32.1,81.2C224.7,411.6,225.3,412,225.9,412z"/>
			<path class="st8" d="M226.7,307.9c1.2-6.6-4.2-11.7-14.2-18.5c-9.3-6.1-19-11.6-29.1-16.4c-8.4-3.9-17-3.5-27.8,2
				c-15,7.7-60,35-60,35s67.3,38,80.3,36.3s45.3-22.8,47.9-30.2S226.7,307.9,226.7,307.9z"/>
			<g class="st33">
				<path d="M226.7,307.9c1.2-6.6-4.2-11.7-14.2-18.5c-9.3-6.1-19-11.6-29.1-16.4c-8.4-3.9-17-3.5-27.8,2c-15,7.7-60,35-60,35
					s67.3,38,80.3,36.3s45.3-22.8,47.9-30.2S226.7,307.9,226.7,307.9z"/>
			</g>
			<path class="st8" d="M169.4,338.4c9.7,8.8,19.8,1.2,35.7-9.1c18.1-11.7,21.6-21.3,21.6-21.3s0,7.2-1.4,10.6s-4.3,7.2-17.3,16.2
				s-22.5,13.5-31.3,15.2l-6.9-1"/>
			<path class="st10" d="M205.1,329.3c18.1-11.7,21.6-21.3,21.6-21.3s0,7.2-1.4,10.6s-4.3,7.2-17.3,16.2s-22.5,13.5-31.3,15.2
				l-6.9-1l-0.5-10.5C179,347.2,189.1,339.6,205.1,329.3z"/>
			<path class="st8" d="M99,399.2l-5,11.4c0,0.1,0,0.2-0.1,0.3c0,0.1,0,0.1,0,0.2c0.1,0.3,0.3,0.6,0.6,0.8c0.8,0.5,1.8,0.5,2.7,0.1
				c0.2-0.1,0.4-0.3,0.6-0.5l0,0v-0.1l4.6-10.7L99,399.2z"/>
			<path class="st8" d="M223.7,399.7l4.3,11.2c0,0.1,0,0.2,0,0.3v0.2c-0.1,0.3-0.3,0.6-0.6,0.7c-0.8,0.4-1.8,0.4-2.6,0
				c-0.2-0.1-0.4-0.3-0.5-0.5l0,0v-0.2l-3.9-10.5L223.7,399.7z"/>
			<path class="st8" d="M159.4,440.3v9.3c0,0.3,0.3,0.6,0.6,0.8c0.8,0.4,1.8,0.4,2.7,0c0.3-0.1,0.5-0.4,0.5-0.8v-9.3
				C161.9,439.7,160.5,439.7,159.4,440.3z"/>
			<path class="st6" d="M122.5,268.7c3.8,4.5,38.7-5.6,48-6.8c14.9-2,27-3.5,32.1-1.9s7.2,4.2,8.8,10.2c1.8,7.1,2.8,10.8,2.8,10.8
				s-24.8,9.5-44.3,11.8S122.5,268.7,122.5,268.7z"/>
			<path class="st7" d="M116,275.3c-3.9,14.7-7.3,31.9,1.6,41.3c6,6.3,36.3,22.7,55.8,16.3c19.2-6.4,59.1-36,63.1-38.9
				s7.6-5,7.3-6.3c-5.4-17.8-13.2-19.2-27.8-16c-17.8,3.9-56.9,19.9-56.9,19.9L116,275.3z"/>
			<polygon class="st31" points="204.5,180.5 191.1,195.7 169.4,185.4 184.6,164.4 			"/>
			<path class="st34" d="M221.2,151.7c0,0,5.5,7.9,4.9,8.8s-4.5,1.6-4.5,1.6L221.2,151.7z"/>
			<path class="st13" d="M221.1,156.9c-3.6,0-6.6-2.9-6.6-6.6s2.9-6.6,6.6-6.6s6.6,2.9,6.6,6.6C227.7,154,224.8,156.9,221.1,156.9z
				 M221.1,145c-3,0-5.4,2.4-5.4,5.4c0,3,2.4,5.4,5.4,5.4c3,0,5.4-2.4,5.4-5.4c0,0,0,0,0,0C226.5,147.4,224.1,145,221.1,145
				L221.1,145z"/>
			<path class="st31" d="M205.9,129.7c10.8,2,14,6.7,15.4,23.8c1.5,17.8-0.2,23.5-2.5,25.9c-1.6,1.7-10.3,2.2-14.8,1
				c-5.6-1.4-18.3-5.6-24.3-14.4c-7.2-10.4-9.3-24.7-2-30.7C187.9,126.8,201.5,128.9,205.9,129.7z"/>
			<path class="st34" d="M204.5,180.5c4.6,1,11.7,0.4,13.8-0.8c-2.6,0.6-5.3,0.5-7.8-0.3c-2.5-0.7-5-1.7-7.2-3.2L204.5,180.5z"/>
			<path class="st13" d="M223.4,136.7L223.4,136.7c-3,2.1-6.7,2.9-10.3,3.5c0.3,2.9-0.6,5.8-1.5,8.5c-0.6,1.9-2.9,7.9-5.3,4.6
				c-1.8-2.4-3.4-4.6-6.8-4c-5.6,1-6.2,8.1-2.5,12.4s6.9,2.5,6.9,2.5s0.5,7.7-3.6,13.1c0,0-6.1,3.7-14.6,0.9
				c-5.4-1.8-13.1-8.5-15.9-13.8c-7.9-14.5-7.9-28.4,1.6-32.7c0.9-7,6.3-10.2,12.5-11.8c8.6-2.2,17.5,3.2,25.8-0.3
				c1.8-0.8,3.4-1.8,5.1-2.5c1-0.5,2.1-0.5,3.1,0c0.7,0.6,1.2,1.4,1.3,2.4c0.5,1.6,0.4,3.4-0.3,5c1.2-0.7,2.5-1.1,3.9-1.4
				c1.4-0.3,2.8,0,3.9,0.9c1,0.9,1.5,2.1,1.6,3.4C228.6,131.1,226.4,134.6,223.4,136.7z"/>
			<path class="st13" d="M171.2,134.1l-6.5-3.6c0.9-1.8,3.2-2.6,5-1.7c1.8,0.9,2.6,3.2,1.7,5C171.3,133.9,171.3,134,171.2,134.1z"/>
			
				<rect x="206" y="150.9" transform="matrix(0.983 -0.1834 0.1834 0.983 -24.0977 42.3007)" class="st13" width="21.3" height="1"/>
			<path class="st31" d="M249.9,189.4c-0.6-0.9-1.8-1.1-2.9-1.5c-1.9-0.7-3.4-2.2-5.3-3c-2.1-0.9-4.5-1-6.7-0.4
				c-0.8,0.2-1.5,0.4-2.2,0.7c-1.4,0.6-2.7,1.2-4,2c-5.3,3.1-9.3,10.2-14.5,13.5c-1.9,1.2-3.8,2.3-5.5,3.4l12.5,11.1
				c2-1.7,4-3.2,6.1-4.7c3.1-1.8,6.1-1.9,9.6-2.4c2.4-0.4,4.7-1,7-1.8c0.8-0.1,1.6-0.6,2.1-1.4c0.3-1.1-0.3-2.2-1.3-2.6
				c-1.2-0.3-2.4-0.5-3.6-0.5c-0.9-0.1-3.3,0.4-3.8-0.5c-0.3-0.5,0.1-1.1,0.4-1.5c2.2-2.7,4.9-5.6,8.3-6.4c1.1-0.2,2.1-0.6,3-1.2
				C250,191.7,250.3,190.4,249.9,189.4z"/>
			<path class="st8" d="M175.5,177c-13.2-7.2-25.2-2.6-29.6,6.7c-3.9,8.4-12.2,40.9-12.2,40.9C137.7,232,175.5,177,175.5,177z"/>
			<path class="st8" d="M173.5,179.6l2-2.6c-14.9-7.1-28.3,2.2-40,20.5c-12.7,19.7-19.3,48-19.4,77.9c0,0,2.5,13.4,19.5,20.1
				c18,7.1,43.1,4.1,50.9-14.5c0,0,0.2-18.6,5.8-27.8c3.7-5.9,12.2-19.1,18.6-28.6c5.5-8.2,9.9-27-1.7-33.9c-3-1.8-6.2-3.4-9.4-4.8
				C189.2,189.4,172.1,183.8,173.5,179.6z"/>
			<path class="st35" d="M173.5,179.7l1.9-2.7c-14.9-7.1-28.3,2.2-40,20.5c-12.7,19.7-19.3,48-19.4,77.9c0,0,2.5,13.4,19.5,20.1
				c18,7.1,43.1,4.1,50.9-14.5c0,0,0.2-18.6,5.8-27.8c3.7-5.9,12.2-19.1,18.6-28.6c5.5-8.2,9.9-27-1.7-33.9c-3-1.8-6.2-3.4-9.4-4.8
				C189.2,189.4,172.2,183.9,173.5,179.7z"/>
			<path class="st36" d="M215.7,212.6c0.8-3.6,1-7.2,0.5-10.9l0,0c-2.7,6.4-6.5,12.2-11.3,17.2c-6.1,6.4-13.6,11.4-19.2,18.1
				c-6,7.2-10.3,15.9-15.3,23.7c-2,3.1-4.7,9.2-8.5,9.5c-4.5,0.3-8.9-5.2-11.4-9.1c-4-6.1-7.3-13.7-12.3-19
				c-4.3-4.7-10.9-10.6-16.8-7.9l0,0c-0.4,1.6-0.8,3.1-1.2,4.7s-0.8,3.2-1.1,4.8c0,0.1,0,0.1,0,0.2c-0.3,1.6-0.6,3.3-0.9,4.9
				c0,0.1,0,0.2,0,0.3c-0.3,1.6-0.5,3.2-0.8,4.9c-1,7.1-1.5,14.2-1.5,21.4c0,0,2.5,13.4,19.5,20.1c18,7.1,43.1,4.1,50.9-14.5
				c0,0,0.2-18.6,5.8-27.8c0.6-0.9,1.3-2,2-3.3l0,0l0.1-0.2c0.6-1,1.4-2.1,2.1-3.3c0-0.1,0.1-0.1,0.1-0.2c0,0,0-0.1,0-0.1
				c1.6-2.5,3.4-5.3,5.3-8.2l0.9-1.3c1.8-2.8,3.7-5.6,5.4-8.2l0,0c0.6-0.9,1.2-1.8,1.8-2.6c0.2-0.4,0.5-0.7,0.7-1.1l0,0
				c0.2-0.3,0.4-0.6,0.6-0.9l0.2-0.3l0.4-0.7l0.2-0.3l0.4-0.9c0-0.1,0.1-0.2,0.1-0.2c0.2-0.4,0.4-0.8,0.6-1.2V220v-0.1
				c0.2-0.4,0.3-0.8,0.5-1.1c0-0.1,0.1-0.2,0.1-0.3c0.1-0.4,0.3-0.7,0.4-1.1v-0.1v-0.1c0.2-0.7,0.5-1.4,0.7-2.1l0,0
				c0.2-0.7,0.4-1.5,0.5-2.2v-0.1L215.7,212.6z"/>
			<path class="st31" d="M284.9,230.8c-0.9,1.1-2,2.2-3.1,3.2c-4.6,4.1-9.9,6.1-16.1,10.1c-5,3.3-12.7,8-19.2,12.1
				c-6.6,4.1-13.6,7.3-21,9.7c-6,1.8-9.4,1.9-13-7.8c-1.8-4.8-3.1-9.6-4.7-14.5c-2.2-7.2-4.5-14.4-6.6-21.6
				c-3.3-10.8-8-19.8,10-29.8c7.8,4.5,10.8,6.3,13.3,15.7c2.9,11.2,7.7,33.4,7.7,33.4c6.4-2.2,12.6-4.9,18.6-7.9
				c2.3-1.1,5.1-1.9,6.7-3.9c1.1-1.4,2-2.9,2.9-4.5c0.8-1.4,1.3-2.9,2.2-4.2c1.7-2.4,3.7-4.6,5.9-6.5c0.4-0.4,0.9-0.7,1.4-0.9
				c0.6,0,1.2,0.3,1.5,0.9c0.7,1.2,0,2.3-0.3,3.5c-0.4,1.4-0.8,2.7-1.2,4c4.6-2.7,8.5-6.3,11.5-10.7c0.3-0.4,0.6-0.8,0.9-1.1
				c0.4-0.3,0.8-0.5,1.3-0.5c1.2,0.1,2.4,2.1,2.5,3.2c-0.1,1.1,0,2.3,0.1,3.4c0.3,1,1,1.9,1.3,2.9c0.3,1.1,0.6,2.1,0.7,3.2
				c0.1,2.4-0.5,4.8-1.8,6.8C285.8,229.6,285.4,230.2,284.9,230.8z"/>
			<path class="st8" d="M210.1,191.4c6.9,2.8,11.8,5.9,14.9,16.4s6.5,27.3,6.5,27.3s0.1,3.5-8.3,8.4c-4.8,2.9-10.7,3.7-16.1,2.2
				l-6.3-20.2C200.9,225.4,189.7,198.3,210.1,191.4z"/>
			<path class="st8" d="M169.9,348.9c-5.5-0.3-9.8-4.3-22.9-9.8c-24.2-10.1-42.3-18.1-49.2-30.8s-11.8-49.2-10.1-65
				c0.2-1.8,0.6-3.6,1.2-5.2l-1.7-0.3l4.4-3.8l0,0c4.5-3.7,11.9-0.4,17.4,2.6c15.8,8.6,28.2,17,38,47.2
				c7.4,22.7,12.2,43.4,22.4,54.5"/>
			<path class="st37" d="M88.9,238.1l-1.7-0.3l4.4-3.8l0,0c4.5-3.7,11.9-0.4,17.4,2.6c15.8,8.6,28.2,17,38,47.2
				c7.4,22.7,12.2,43.4,22.4,54.5l0.5,10.5c-5.5-0.3-9.8-4.3-22.9-9.8c-24.2-10.1-42.3-18.1-49.2-30.8s-11.8-49.2-10.1-65
				C87.9,241.6,88.3,239.8,88.9,238.1z"/>
			<path class="st8" d="M104.4,240.6c15.8,8.6,28.2,17,38,47.2s15.1,56.9,34.4,62c0,0-8.7,3.5-35.4-7.8
				c-8.5-3.6-18.8-10.1-25.6-13.9c-13.3-7.5-21.3-13.5-22.6-15.8c-7-12.6-11.8-49.2-10.1-65S96.5,236.3,104.4,240.6z"/>
		</g>
	</g>
	<g id="freepik--speech-bubble--inject-14_1_">
		<g id="freepik--speech-bubble--inject-14">
			<path class="st8" d="M193.3,106.7l-4.3-8.2l3.5-10.2v-6.2l-10.8,6.2v6.2l4.6,8c0.1,0.1,0.2,0.2,0.3,0.3l0,0L193.3,106.7z"/>
			<path class="st38" d="M193.3,106.7l-4.3-8.2l3.5-10.2v-6.2l-10.8,6.2v6.2l4.6,8c0.1,0.1,0.2,0.2,0.3,0.3l0,0L193.3,106.7z"/>
			<path class="st8" d="M219,32.8c-0.1-2.3-1.3-4.3-3.2-5.6l-2.6-1.5c-2-1-4.4-1-6.4,0l-40.3,23.3c-1.9,1.2-3.1,3.3-3.2,5.6v44.3
				c0.1,2.3,1.3,4.3,3.2,5.6l2.6,1.5c2,1,4.4,1,6.4,0l12.9-7.5l4.6,8c0.2,0.3,0.6,0.4,0.9,0.3c0.1-0.1,0.3-0.2,0.3-0.4l4.9-14.1
				l16.6-9.6c1.9-1.3,3.1-3.3,3.2-5.6V32.8z"/>
			<path class="st38" d="M163.2,98.8c0.1,2.3,1.3,4.3,3.2,5.6l2.6,1.5c1.8,0.9,4,1,5.9,0.3c-1.5,0.6-2.7-0.3-2.7-2.1V59.8
				c0-1.1,0.4-2.2,0.9-3.2l-9.1-5.2c-0.6,1-0.9,2.1-0.9,3.2V98.8z"/>
			<path class="st18" d="M218.9,31.8c-0.4-1.4-1.6-1.8-3.1-1l-40.3,23.3c-1,0.6-1.7,1.4-2.3,2.4l-9.1-5.2c0.5-1,1.3-1.8,2.3-2.4
				l40.3-23.3c2-1,4.4-1,6.4,0l2.6,1.5C217.4,28.2,218.6,29.9,218.9,31.8z"/>
			<g id="freepik----inject-14">
				<path class="st17" d="M178.2,77.2c0-0.3,0-0.6,0.2-0.9c0.1-0.3,0.3-0.6,0.5-0.9l8.8-14.2c0-0.1,0.1-0.1,0.1-0.2l0.1-0.1
					c0.1-0.1,0.2-0.1,0.3,0c0.1,0.1,0.2,0.3,0.1,0.4v5.5c0,0.4-0.1,0.8-0.3,1.1c-0.1,0.3-0.3,0.5-0.4,0.8l-4.5,6.9l4.5,2.1
					c0.2,0.1,0.3,0.1,0.4,0.2c0.2,0.1,0.3,0.4,0.3,0.8v3.9c0,0.2,0,0.4-0.1,0.6c-0.1,0.2-0.2,0.3-0.3,0.4h-0.1c0,0-0.1,0-0.1,0
					l-8.8-4c-0.2-0.1-0.3-0.2-0.5-0.3c-0.1-0.2-0.2-0.5-0.2-0.7V77.2z"/>
				<path class="st17" d="M197.3,55.3c0.1-0.3,0.2-0.6,0.3-0.9c0.1-0.3,0.4-0.5,0.6-0.7l2.9-1.7c0.1-0.1,0.2-0.1,0.3,0
					c0.1,0.1,0.2,0.3,0.1,0.4c0,0.1,0,0.2,0,0.3l-7.4,31.5c-0.1,0.3-0.2,0.6-0.3,0.8c-0.1,0.3-0.4,0.5-0.6,0.7l-2.9,1.7
					c-0.1,0.1-0.2,0.1-0.3,0c-0.1-0.1-0.2-0.3-0.1-0.4c0-0.1,0-0.2,0-0.3L197.3,55.3z"/>
				<path class="st17" d="M213.4,60.4c0,0.3,0,0.6-0.2,0.9c-0.1,0.3-0.3,0.6-0.5,0.9L204,76.3c0,0.1-0.1,0.1-0.1,0.2l-0.1,0.1
					c-0.1,0.1-0.2,0.1-0.3,0c-0.1-0.1-0.1-0.3-0.1-0.4v-5.5c0-0.4,0.1-0.8,0.3-1.1c0.2-0.3,0.3-0.5,0.4-0.7l3.8-5.9l-3.8-1.5
					c-0.2-0.1-0.3-0.1-0.4-0.2c-0.2-0.1-0.3-0.4-0.3-0.8v-5.5c0-0.2,0-0.4,0.1-0.6c0.1-0.2,0.2-0.3,0.3-0.4h0.1h0.1l8.8,4
					c0.4,0.1,0.7,0.6,0.6,1L213.4,60.4z"/>
			</g>
		</g>
	</g>
</g>
</svg>
